<svg xmlns="http://www.w3.org/2000/svg" xmlns:xlink="http://www.w3.org/1999/xlink" width="500" zoomAndPan="magnify" viewBox="0 0 1440 809.999993" height="250" preserveAspectRatio="xMidYMid meet" version="1.0"><defs><clipPath id="950f82a302"><path d="M 101.507812 244.992188 L 387 244.992188 L 387 531 L 101.507812 531 Z M 101.507812 244.992188 " clip-rule="nonzero"/></clipPath><clipPath id="97ab9704ac"><path d="M 568.679688 245 L 777.929688 245 L 777.929688 527.742188 L 568.679688 527.742188 Z M 568.679688 245 " clip-rule="nonzero"/></clipPath><clipPath id="f15956228a"><path d="M 1016 272.210938 L 1203 272.210938 L 1203 459 L 1016 459 Z M 1016 272.210938 " clip-rule="nonzero"/></clipPath><clipPath id="f42b8169f3"><path d="M 1055 311 L 1242 311 L 1242 527.960938 L 1055 527.960938 Z M 1055 311 " clip-rule="nonzero"/></clipPath><clipPath id="29d4b4134b"><path d="M 975.710938 281 L 1027 281 L 1027 480 L 975.710938 480 Z M 975.710938 281 " clip-rule="nonzero"/></clipPath><clipPath id="607d3e3dcf"><path d="M 1231 287 L 1281.710938 287 L 1281.710938 488 L 1231 488 Z M 1231 287 " clip-rule="nonzero"/></clipPath></defs><rect x="-144" width="1728" fill="#ffffff" y="-80.999999" height="971.999992" fill-opacity="1"/><rect x="-144" width="1728" fill="#ffffff" y="-80.999999" height="971.999992" fill-opacity="1"/><rect x="-144" width="1728" fill="#b31166" y="-80.999999" height="971.999992" fill-opacity="1"/><g clip-path="url(#950f82a302)"><path fill="#b31166" d="M 141.195312 244.261719 L 346.257812 244.261719 C 347.582031 244.261719 348.902344 244.324219 350.222656 244.453125 C 351.539062 244.585938 352.847656 244.777344 354.144531 245.035156 C 355.441406 245.296875 356.726562 245.617188 357.992188 246 C 359.257812 246.386719 360.503906 246.832031 361.726562 247.335938 C 362.949219 247.84375 364.144531 248.410156 365.3125 249.03125 C 366.480469 249.65625 367.613281 250.335938 368.714844 251.070312 C 369.816406 251.808594 370.875 252.59375 371.898438 253.433594 C 372.921875 254.273438 373.902344 255.164062 374.839844 256.097656 C 375.773438 257.035156 376.664062 258.015625 377.503906 259.039062 C 378.34375 260.058594 379.128906 261.121094 379.867188 262.222656 C 380.601562 263.324219 381.28125 264.457031 381.90625 265.625 C 382.527344 266.792969 383.09375 267.988281 383.601562 269.210938 C 384.105469 270.433594 384.550781 271.679688 384.9375 272.945312 C 385.320312 274.210938 385.640625 275.496094 385.898438 276.792969 C 386.160156 278.089844 386.351562 279.398438 386.480469 280.714844 C 386.613281 282.035156 386.675781 283.355469 386.675781 284.679688 L 386.675781 489.742188 C 386.675781 491.066406 386.613281 492.386719 386.480469 493.707031 C 386.351562 495.023438 386.160156 496.332031 385.898438 497.628906 C 385.640625 498.925781 385.320312 500.210938 384.9375 501.476562 C 384.550781 502.742188 384.105469 503.988281 383.601562 505.210938 C 383.09375 506.433594 382.527344 507.628906 381.90625 508.796875 C 381.28125 509.964844 380.601562 511.097656 379.867188 512.199219 C 379.128906 513.300781 378.34375 514.359375 377.503906 515.382812 C 376.664062 516.40625 375.773438 517.386719 374.839844 518.324219 C 373.902344 519.257812 372.921875 520.148438 371.898438 520.988281 C 370.875 521.828125 369.816406 522.613281 368.714844 523.347656 C 367.613281 524.085938 366.480469 524.765625 365.3125 525.390625 C 364.144531 526.011719 362.949219 526.578125 361.726562 527.085938 C 360.503906 527.589844 359.257812 528.035156 357.992188 528.421875 C 356.726562 528.804688 355.441406 529.125 354.144531 529.382812 C 352.847656 529.644531 351.539062 529.835938 350.222656 529.964844 C 348.902344 530.097656 347.582031 530.160156 346.257812 530.160156 L 141.195312 530.160156 C 139.871094 530.160156 138.550781 530.097656 137.230469 529.964844 C 135.914062 529.835938 134.605469 529.644531 133.308594 529.382812 C 132.011719 529.125 130.726562 528.804688 129.460938 528.421875 C 128.195312 528.035156 126.949219 527.589844 125.726562 527.085938 C 124.503906 526.578125 123.308594 526.011719 122.140625 525.390625 C 120.972656 524.765625 119.839844 524.085938 118.738281 523.347656 C 117.636719 522.613281 116.574219 521.828125 115.554688 520.988281 C 114.53125 520.148438 113.550781 519.257812 112.613281 518.324219 C 111.679688 517.386719 110.789062 516.40625 109.949219 515.382812 C 109.109375 514.359375 108.324219 513.300781 107.585938 512.199219 C 106.851562 511.097656 106.171875 509.964844 105.546875 508.796875 C 104.925781 507.628906 104.359375 506.433594 103.851562 505.210938 C 103.347656 503.988281 102.902344 502.742188 102.515625 501.476562 C 102.132812 500.210938 101.8125 498.925781 101.550781 497.628906 C 101.292969 496.332031 101.101562 495.023438 100.96875 493.707031 C 100.839844 492.386719 100.777344 491.066406 100.777344 489.742188 L 100.777344 284.679688 C 100.777344 283.355469 100.839844 282.035156 100.96875 280.714844 C 101.101562 279.398438 101.292969 278.089844 101.550781 276.792969 C 101.8125 275.496094 102.132812 274.210938 102.515625 272.945312 C 102.902344 271.679688 103.347656 270.433594 103.851562 269.210938 C 104.359375 267.988281 104.925781 266.792969 105.546875 265.625 C 106.171875 264.457031 106.851562 263.324219 107.585938 262.222656 C 108.324219 261.121094 109.109375 260.058594 109.949219 259.039062 C 110.789062 258.015625 111.679688 257.035156 112.613281 256.097656 C 113.550781 255.164062 114.53125 254.273438 115.554688 253.433594 C 116.574219 252.59375 117.636719 251.808594 118.738281 251.070312 C 119.839844 250.335938 120.972656 249.65625 122.140625 249.03125 C 123.308594 248.410156 124.503906 247.84375 125.726562 247.335938 C 126.949219 246.832031 128.195312 246.386719 129.460938 246 C 130.726562 245.617188 132.011719 245.296875 133.308594 245.035156 C 134.605469 244.777344 135.914062 244.585938 137.230469 244.453125 C 138.550781 244.324219 139.871094 244.261719 141.195312 244.261719 Z M 141.195312 244.261719 " fill-opacity="1" fill-rule="evenodd"/></g><path fill="#ffffff" d="M 227.808594 312.070312 L 299.230469 383.492188 L 299.261719 383.519531 C 301.292969 385.554688 301.292969 388.851562 299.261719 390.882812 L 299.257812 390.882812 L 227.839844 462.300781 C 226.894531 463.265625 225.582031 463.859375 224.125 463.859375 C 221.25 463.859375 218.921875 461.527344 218.921875 458.652344 L 218.921875 315.75 C 218.921875 314.417969 219.429688 313.085938 220.445312 312.070312 C 222.476562 310.035156 225.777344 310.035156 227.808594 312.070312 Z M 227.808594 312.070312 " fill-opacity="1" fill-rule="nonzero"/><path fill="#ffffff" d="M 369.984375 387.203125 C 369.984375 352.335938 355.851562 320.769531 333 297.921875 C 310.152344 275.070312 278.585938 260.9375 243.71875 260.9375 C 208.851562 260.9375 177.285156 275.070312 154.4375 297.921875 C 131.585938 320.769531 117.453125 352.335938 117.453125 387.203125 C 117.453125 422.070312 131.585938 453.632812 154.4375 476.484375 C 177.285156 499.332031 208.851562 513.464844 243.71875 513.464844 C 278.585938 513.464844 310.152344 499.332031 333 476.484375 C 355.851562 453.636719 369.984375 422.070312 369.984375 387.203125 Z M 354.363281 387.203125 C 354.363281 357.742188 342.78125 329.792969 321.957031 308.964844 C 301.128906 288.136719 273.175781 276.558594 243.71875 276.558594 C 214.257812 276.558594 186.308594 288.136719 165.480469 308.964844 C 144.652344 329.792969 133.074219 357.742188 133.074219 387.203125 C 133.074219 416.660156 144.652344 444.613281 165.480469 465.4375 C 186.308594 486.265625 214.257812 497.847656 243.71875 497.847656 C 273.175781 497.847656 301.128906 486.265625 321.957031 465.4375 C 342.78125 444.613281 354.363281 416.660156 354.363281 387.203125 Z M 354.363281 387.203125 " fill-opacity="1" fill-rule="evenodd"/><g clip-path="url(#97ab9704ac)"><path fill="#ffffff" d="M 630.125 324.683594 L 716.453125 324.683594 C 723.875 324.683594 729.914062 318.644531 729.914062 311.222656 L 729.914062 280.828125 C 729.914062 273.402344 723.875 267.363281 716.453125 267.363281 L 701.542969 267.363281 C 698.511719 254.570312 686.996094 245.027344 673.289062 245.027344 C 659.582031 245.027344 648.066406 254.570312 645.035156 267.363281 L 630.125 267.363281 C 622.703125 267.363281 616.664062 273.402344 616.664062 280.828125 L 616.664062 311.222656 C 616.664062 318.644531 622.703125 324.683594 630.125 324.683594 Z M 630.800781 281.5 L 651.359375 281.5 C 653.253906 281.5 655.074219 280.738281 656.402344 279.382812 C 657.734375 278.03125 658.460938 276.199219 658.425781 274.304688 C 658.421875 274.15625 658.410156 273.957031 658.394531 273.761719 C 658.554688 265.683594 665.175781 259.160156 673.289062 259.160156 C 681.402344 259.160156 688.023438 265.679688 688.183594 273.753906 C 688.164062 273.996094 688.152344 274.242188 688.152344 274.429688 C 688.152344 278.335938 691.316406 281.5 695.21875 281.5 L 715.78125 281.5 L 715.78125 310.550781 L 630.800781 310.550781 Z M 640.898438 356.039062 L 733.65625 356.039062 C 737.558594 356.039062 740.722656 359.203125 740.722656 363.105469 C 740.722656 367.007812 737.558594 370.171875 733.65625 370.171875 L 640.898438 370.171875 C 636.992188 370.171875 633.828125 367.007812 633.828125 363.105469 C 633.828125 359.203125 636.992188 356.039062 640.898438 356.039062 Z M 605.855469 413.753906 C 605.855469 409.847656 609.019531 406.683594 612.921875 406.683594 L 733.65625 406.683594 C 737.558594 406.683594 740.722656 409.847656 740.722656 413.753906 C 740.722656 417.65625 737.558594 420.820312 733.65625 420.820312 L 612.921875 420.820312 C 609.019531 420.820312 605.855469 417.65625 605.855469 413.753906 Z M 694.492188 457.332031 C 698.394531 457.332031 701.558594 460.496094 701.558594 464.398438 C 701.558594 468.300781 698.394531 471.464844 694.492188 471.464844 L 612.921875 471.464844 C 609.019531 471.464844 605.855469 468.300781 605.855469 464.398438 C 605.855469 460.496094 609.019531 457.332031 612.921875 457.332031 Z M 777.902344 296.023438 L 777.902344 520.640625 C 777.902344 524.542969 774.734375 527.707031 770.832031 527.707031 L 575.746094 527.707031 C 571.839844 527.707031 568.679688 524.542969 568.679688 520.640625 L 568.679688 296.023438 C 568.679688 292.121094 571.839844 288.957031 575.746094 288.957031 L 607.242188 288.957031 L 607.242188 303.089844 L 582.8125 303.089844 L 582.8125 513.574219 L 763.765625 513.574219 L 763.765625 303.089844 L 739.339844 303.089844 L 739.339844 288.957031 L 770.832031 288.957031 C 774.734375 288.957031 777.902344 292.121094 777.902344 296.023438 Z M 777.902344 296.023438 " fill-opacity="1" fill-rule="nonzero"/></g><g clip-path="url(#f15956228a)"><path fill="#ffffff" d="M 1173.371094 318.820312 C 1167.988281 306.808594 1161.171875 295.578125 1153.011719 285.234375 C 1166.277344 288.394531 1178.753906 294.199219 1189.808594 302.367188 Z M 1046.898438 445.414062 C 1035.027344 429.289062 1028.128906 409.902344 1027.121094 389.855469 L 1071.023438 389.855469 C 1071.324219 399.289062 1072.453125 408.6875 1074.382812 417.898438 Z M 1105.363281 285.238281 C 1094.738281 298.691406 1086.425781 313.609375 1080.570312 329.78125 C 1069.554688 328.058594 1058.585938 325.726562 1047.828125 322.835938 C 1062.214844 303.875 1082.472656 290.679688 1105.363281 285.238281 Z M 1160.15625 332.042969 C 1151.605469 332.898438 1142.9375 333.402344 1134.300781 333.542969 L 1134.300781 282.566406 C 1135.371094 282.621094 1136.433594 282.695312 1137.496094 282.78125 C 1149.417969 295.746094 1158.863281 310.460938 1165.597656 326.597656 Z M 1134.300781 343.777344 C 1139.203125 343.699219 1144.109375 343.507812 1149.007812 343.203125 L 1134.300781 357.925781 Z M 1102.398438 389.855469 L 1083.140625 409.132812 C 1082.101562 402.765625 1081.46875 396.316406 1081.25 389.855469 Z M 1120.890625 282.78125 C 1121.949219 282.695312 1123.011719 282.621094 1124.082031 282.566406 L 1124.082031 333.546875 C 1113.015625 333.363281 1101.917969 332.589844 1090.945312 331.238281 C 1097.734375 313.292969 1107.785156 297.027344 1120.890625 282.78125 Z M 1027.128906 379.625 C 1027.96875 362.644531 1032.957031 346.257812 1041.738281 331.769531 C 1053.417969 335.050781 1065.355469 337.691406 1077.359375 339.636719 C 1073.570312 352.640625 1071.449219 366.046875 1071.023438 379.625 Z M 1112.621094 379.625 L 1081.25 379.625 C 1081.6875 366.535156 1083.8125 353.625 1087.582031 341.121094 C 1099.652344 342.6875 1111.890625 343.582031 1124.082031 343.777344 L 1124.082031 368.15625 Z M 1202.605469 301.65625 C 1202.539062 300.21875 1201.867188 298.875 1200.757812 297.953125 C 1183.503906 283.683594 1162.636719 274.972656 1140.417969 272.765625 C 1136.742188 272.402344 1133.007812 272.21875 1129.273438 272.214844 C 1129.246094 272.214844 1129.21875 272.210938 1129.191406 272.210938 C 1129.164062 272.210938 1129.136719 272.214844 1129.109375 272.214844 C 1125.375 272.21875 1121.640625 272.402344 1117.96875 272.765625 C 1084.148438 276.125 1053.996094 294.410156 1035.230469 322.933594 C 1035.21875 322.953125 1035.207031 322.972656 1035.195312 322.992188 C 1023.140625 341.332031 1016.765625 362.683594 1016.765625 384.742188 C 1016.765625 410.847656 1025.902344 436.289062 1042.488281 456.375 C 1043.402344 457.484375 1044.746094 458.15625 1046.183594 458.226562 C 1046.265625 458.230469 1046.34375 458.230469 1046.425781 458.230469 C 1047.777344 458.230469 1049.078125 457.695312 1050.039062 456.734375 L 1201.117188 305.515625 C 1202.132812 304.496094 1202.675781 303.09375 1202.605469 301.65625 " fill-opacity="1" fill-rule="nonzero"/></g><g clip-path="url(#f42b8169f3)"><path fill="#ffffff" d="M 1187.785156 468.566406 C 1187.488281 468.773438 1187.214844 469.015625 1186.964844 469.285156 L 1149.632812 509.765625 L 1149.632812 491.0625 C 1149.632812 489.578125 1148.988281 488.171875 1147.871094 487.199219 C 1146.933594 486.386719 1145.746094 485.949219 1144.523438 485.949219 C 1144.28125 485.949219 1144.039062 485.964844 1143.796875 485.996094 C 1142.25 486.21875 1140.8125 486.394531 1139.40625 486.539062 C 1132.671875 487.210938 1125.710938 487.210938 1118.976562 486.539062 C 1100.652344 484.714844 1083.34375 478.03125 1068.574219 467.117188 L 1211.488281 324.070312 C 1212.589844 325.566406 1213.644531 327.082031 1214.652344 328.617188 C 1225.605469 345.28125 1231.394531 364.6875 1231.394531 384.742188 C 1231.394531 418.066406 1215.09375 449.402344 1187.785156 468.566406 Z M 1223.191406 322.996094 C 1220.964844 319.601562 1218.511719 316.277344 1215.898438 313.109375 C 1214.980469 311.996094 1213.636719 311.324219 1212.199219 311.257812 C 1210.761719 311.1875 1209.363281 311.734375 1208.34375 312.75 L 1057.265625 463.96875 C 1056.25 464.988281 1055.707031 466.390625 1055.777344 467.828125 C 1055.84375 469.265625 1056.515625 470.609375 1057.625 471.53125 C 1074.878906 485.800781 1095.746094 494.507812 1117.964844 496.71875 C 1125.03125 497.417969 1132.324219 497.453125 1139.410156 496.8125 L 1139.410156 522.847656 C 1139.410156 524.953125 1140.703125 526.84375 1142.660156 527.609375 C 1143.265625 527.847656 1143.894531 527.960938 1144.519531 527.960938 C 1145.917969 527.960938 1147.292969 527.386719 1148.277344 526.316406 L 1194.109375 476.621094 C 1223.867188 455.515625 1241.617188 421.214844 1241.617188 384.742188 C 1241.617188 362.683594 1235.242188 341.332031 1223.191406 322.996094 " fill-opacity="1" fill-rule="nonzero"/></g><path fill="#ffffff" d="M 1129.191406 425.660156 C 1123.546875 425.660156 1118.972656 430.242188 1118.972656 435.890625 C 1118.972656 441.542969 1123.546875 446.121094 1129.191406 446.121094 C 1134.835938 446.121094 1139.410156 441.542969 1139.410156 435.890625 C 1139.410156 430.242188 1134.835938 425.660156 1129.191406 425.660156 " fill-opacity="1" fill-rule="nonzero"/><path fill="#ffffff" d="M 1159.851562 425.660156 C 1154.207031 425.660156 1149.632812 430.242188 1149.632812 435.890625 C 1149.632812 441.542969 1154.207031 446.121094 1159.851562 446.121094 C 1165.496094 446.121094 1170.074219 441.542969 1170.074219 435.890625 C 1170.074219 430.242188 1165.496094 425.660156 1159.851562 425.660156 " fill-opacity="1" fill-rule="nonzero"/><path fill="#ffffff" d="M 1190.515625 425.660156 C 1184.871094 425.660156 1180.292969 430.242188 1180.292969 435.890625 C 1180.292969 441.542969 1184.871094 446.121094 1190.515625 446.121094 C 1196.160156 446.121094 1200.734375 441.542969 1200.734375 435.890625 C 1200.734375 430.242188 1196.160156 425.660156 1190.515625 425.660156 " fill-opacity="1" fill-rule="nonzero"/><g clip-path="url(#29d4b4134b)"><path fill="#ffffff" d="M 1016.761719 453.835938 C 1013.960938 453.484375 1011.40625 455.46875 1011.058594 458.273438 L 1010.625 461.730469 C 994.761719 439.351562 986.105469 412.328125 986.105469 384.742188 C 986.105469 348.980469 1000.085938 315.421875 1025.472656 290.253906 C 1027.480469 288.261719 1027.492188 285.027344 1025.507812 283.019531 C 1023.519531 281.011719 1020.285156 281 1018.28125 282.984375 C 990.941406 310.089844 975.886719 346.230469 975.886719 384.742188 C 975.886719 414.296875 985.113281 443.25 1002.03125 467.277344 L 997.714844 466.636719 C 994.917969 466.222656 992.324219 468.152344 991.910156 470.949219 C 991.496094 473.742188 993.421875 476.34375 996.214844 476.757812 L 1013.464844 479.3125 C 1013.710938 479.351562 1013.960938 479.371094 1014.210938 479.371094 C 1015.320312 479.371094 1016.410156 479.007812 1017.304688 478.328125 C 1018.398438 477.492188 1019.113281 476.253906 1019.28125 474.886719 L 1021.199219 459.542969 C 1021.546875 456.742188 1019.5625 454.183594 1016.761719 453.835938 " fill-opacity="1" fill-rule="nonzero"/></g><g clip-path="url(#607d3e3dcf)"><path fill="#ffffff" d="M 1256.011719 297.785156 C 1258.832031 297.785156 1261.121094 295.496094 1261.121094 292.671875 C 1261.121094 289.847656 1258.832031 287.558594 1256.011719 287.558594 L 1240.679688 287.558594 C 1237.855469 287.558594 1235.570312 289.847656 1235.570312 292.671875 L 1235.570312 308.015625 C 1235.570312 310.839844 1237.855469 313.132812 1240.679688 313.132812 C 1243.503906 313.132812 1245.792969 310.839844 1245.792969 308.015625 L 1245.792969 306.328125 C 1262.308594 328.980469 1271.34375 356.570312 1271.34375 384.742188 C 1271.34375 420.023438 1257.679688 453.261719 1232.875 478.328125 C 1230.890625 480.332031 1230.90625 483.574219 1232.910156 485.5625 C 1233.90625 486.550781 1235.207031 487.042969 1236.507812 487.042969 C 1237.820312 487.042969 1239.140625 486.539062 1240.136719 485.527344 C 1266.851562 458.53125 1281.5625 422.738281 1281.5625 384.742188 C 1281.5625 353.355469 1271.148438 322.636719 1252.167969 297.785156 L 1256.011719 297.785156 " fill-opacity="1" fill-rule="nonzero"/></g></svg>