<svg xmlns="http://www.w3.org/2000/svg" xmlns:xlink="http://www.w3.org/1999/xlink" width="1920" zoomAndPan="magnify" viewBox="0 0 1440 809.999993" height="1080" preserveAspectRatio="xMidYMid meet" version="1.0"><defs><g/><clipPath id="c746250d8d"><path d="M 275.089844 298 L 674 298 L 674 622 L 275.089844 622 Z M 275.089844 298 " clip-rule="nonzero"/></clipPath><clipPath id="be48e8f164"><path d="M 359 217.308594 L 565 217.308594 L 565 290.808594 L 359 290.808594 Z M 359 217.308594 " clip-rule="nonzero"/></clipPath><clipPath id="577b836ac5"><path d="M 894.410156 263.683594 L 1103.660156 263.683594 L 1103.660156 546.433594 L 894.410156 546.433594 Z M 894.410156 263.683594 " clip-rule="nonzero"/></clipPath><clipPath id="920f442251"><path d="M 909.867188 448.066406 L 1069.617188 448.066406 L 1069.617188 673.816406 L 909.867188 673.816406 Z M 909.867188 448.066406 " clip-rule="nonzero"/></clipPath><clipPath id="960cd4a448"><path d="M 699 405.347656 L 860.886719 405.347656 L 860.886719 491.597656 L 699 491.597656 Z M 699 405.347656 " clip-rule="nonzero"/></clipPath></defs><rect x="-144" width="1728" fill="#ffffff" y="-80.999999" height="971.999992" fill-opacity="1"/><rect x="-144" width="1728" fill="#b31166" y="-80.999999" height="971.999992" fill-opacity="1"/><g clip-path="url(#c746250d8d)"><path fill="#ffffff" d="M 313.992188 337.472656 C 313.992188 327.523438 314.207031 318.21875 313.886719 308.910156 C 313.777344 301.53125 316.882812 298 324.160156 299.070312 C 353.164062 303.132812 382.707031 305.273438 410.960938 312.226562 C 438.574219 319.074219 460.621094 336.402344 474.214844 363.675781 C 498.9375 319.074219 540.785156 307.09375 585.847656 301.421875 C 598.796875 299.820312 611.960938 299.925781 625.019531 299.070312 C 632.511719 298.535156 635.292969 301.851562 634.972656 309.230469 C 634.542969 318.539062 634.867188 327.84375 634.867188 337.683594 C 645.460938 339.289062 655.09375 341 664.726562 342.070312 C 671.148438 342.820312 674.039062 345.492188 673.929688 352.230469 C 673.824219 426.574219 673.824219 500.914062 673.929688 575.363281 C 673.929688 584.457031 669.648438 584.988281 662.265625 583.921875 C 622.769531 577.714844 583.382812 577.074219 544.320312 587.878906 C 521.199219 594.296875 500.007812 604.03125 481.066406 619.113281 C 478.390625 621.25 471.433594 622 469.078125 620.183594 C 427.335938 586.914062 378.636719 578.359375 327.265625 580.070312 C 313.457031 580.496094 299.542969 582.207031 285.84375 584.242188 C 278.246094 585.417969 275.140625 583.277344 275.25 575.683594 C 275.355469 501.34375 275.355469 427 275.25 352.554688 C 275.25 345.921875 277.710938 343.03125 284.347656 342.285156 C 293.871094 340.894531 303.398438 339.183594 313.992188 337.472656 Z M 323.945312 533.003906 C 378.210938 535.464844 431.1875 539.636719 470.039062 588.199219 C 470.039062 581.566406 470.039062 577.714844 470.039062 573.867188 C 470.039062 514.285156 469.71875 454.707031 470.253906 395.125 C 470.46875 372.984375 462.226562 355.121094 445.53125 341.640625 C 410.105469 312.65625 367.722656 309.445312 323.945312 308.484375 C 323.945312 383.894531 323.945312 457.59375 323.945312 533.003906 Z M 624.375 533.003906 C 624.375 457.378906 624.375 383.253906 624.375 309.125 C 585.632812 306.664062 540.894531 316.292969 514.886719 332.871094 C 491.660156 347.738281 478.496094 367.636719 478.925781 396.730469 C 479.78125 455.132812 479.136719 513.644531 479.136719 572.046875 C 479.136719 576.648438 479.136719 581.140625 479.136719 587.984375 C 518.097656 539.53125 570.863281 535.570312 624.375 533.003906 Z M 634.757812 347.3125 C 634.757812 353.621094 634.757812 358.007812 634.757812 362.394531 C 634.757812 417.910156 634.4375 473.53125 634.972656 529.046875 C 635.078125 539.957031 631.65625 542.953125 621.058594 542.953125 C 605.21875 543.058594 589.164062 544.128906 573.429688 546.480469 C 545.175781 550.761719 518.3125 559.210938 497.867188 580.710938 C 491.769531 587.023438 487.488281 595.042969 482.347656 602.320312 C 539.503906 567.660156 600.402344 565.734375 663.550781 573.867188 C 663.550781 499.203125 663.550781 425.503906 663.550781 351.054688 C 654.238281 349.878906 645.355469 348.703125 634.757812 347.3125 Z M 465.972656 602.320312 C 462.121094 596.433594 459.445312 589.054688 454.199219 584.777344 C 442.320312 575.042969 430.121094 565.09375 416.417969 558.460938 C 389.875 545.625 360.65625 543.59375 331.546875 542.84375 C 314.101562 542.417969 313.992188 542.3125 313.992188 524.234375 C 313.992188 469.894531 313.992188 415.554688 313.992188 361.21875 C 313.992188 356.832031 313.992188 352.554688 313.992188 347.847656 C 309.390625 348.058594 306.5 348.058594 303.609375 348.488281 C 284.347656 350.949219 284.347656 350.949219 284.347656 370.09375 C 284.347656 433.417969 284.347656 496.742188 284.347656 560.066406 C 284.347656 564.34375 284.347656 568.625 284.347656 574.078125 C 348.5625 565.734375 409.355469 567.769531 465.972656 602.320312 Z M 465.972656 602.320312 " fill-opacity="1" fill-rule="nonzero"/></g><g clip-path="url(#be48e8f164)"><path fill="#ffffff" d="M 362.226562 281.773438 C 359.085938 279.644531 359.753906 277.132812 360.601562 274.730469 C 362.910156 268.078125 366.328125 262.089844 371.539062 257.191406 C 388.140625 241.597656 407.804688 231.472656 429.730469 225.859375 C 452.207031 220.101562 474.394531 221.367188 495.847656 230.566406 C 505.941406 234.898438 515.804688 239.78125 526.125 244.582031 C 525.75 243.464844 525.40625 242.035156 524.820312 240.691406 C 520.898438 231.523438 521.242188 229.363281 528.257812 222.128906 C 529.820312 220.503906 531.675781 219.175781 533.855469 217.308594 C 535.027344 219.191406 535.90625 220.523438 536.703125 221.902344 C 545.316406 236.714844 553.664062 251.691406 562.699219 266.261719 C 564.878906 269.796875 564.683594 272.523438 563.253906 275.523438 C 560.355469 281.5625 555.261719 285.875 549.953125 289.59375 C 548.097656 290.890625 544.632812 290.46875 542.011719 290.09375 C 522.820312 287.289062 503.546875 286.265625 484.226562 287.808594 C 478.203125 288.292969 472.261719 289.691406 465.75 290.746094 C 465.035156 288.828125 466.222656 286.703125 467.363281 284.902344 C 472.71875 276.449219 479.230469 269.410156 489.90625 267.914062 C 494.953125 267.21875 499.984375 266.472656 505.027344 265.824219 C 507.273438 265.53125 509.554688 265.464844 512.335938 265.253906 C 502.035156 254.089844 456.75 243.398438 433.78125 246.351562 C 405.851562 249.9375 382.152344 262.269531 362.226562 281.773438 Z M 362.226562 281.773438 " fill-opacity="1" fill-rule="nonzero"/></g><g clip-path="url(#577b836ac5)"><path fill="#ffffff" d="M 955.859375 343.378906 L 1042.1875 343.378906 C 1049.605469 343.378906 1055.648438 337.339844 1055.648438 329.914062 L 1055.648438 299.519531 C 1055.648438 292.09375 1049.605469 286.058594 1042.1875 286.058594 L 1027.277344 286.058594 C 1024.246094 273.265625 1012.730469 263.71875 999.023438 263.71875 C 985.316406 263.71875 973.800781 273.265625 970.769531 286.058594 L 955.859375 286.058594 C 948.4375 286.058594 942.398438 292.09375 942.398438 299.519531 L 942.398438 329.914062 C 942.398438 337.339844 948.4375 343.378906 955.859375 343.378906 Z M 956.535156 300.191406 L 977.09375 300.191406 C 978.988281 300.191406 980.804688 299.429688 982.136719 298.074219 C 983.464844 296.722656 984.191406 294.890625 984.160156 292.996094 C 984.15625 292.847656 984.144531 292.648438 984.125 292.453125 C 984.289062 284.375 990.910156 277.855469 999.023438 277.855469 C 1007.132812 277.855469 1013.753906 284.371094 1013.917969 292.445312 C 1013.898438 292.6875 1013.882812 292.933594 1013.882812 293.125 C 1013.882812 297.027344 1017.050781 300.191406 1020.953125 300.191406 L 1041.515625 300.191406 L 1041.515625 329.242188 L 956.535156 329.242188 Z M 966.628906 374.730469 L 1059.390625 374.730469 C 1063.292969 374.730469 1066.457031 377.894531 1066.457031 381.796875 C 1066.457031 385.703125 1063.292969 388.863281 1059.390625 388.863281 L 966.628906 388.863281 C 962.726562 388.863281 959.5625 385.703125 959.5625 381.796875 C 959.5625 377.894531 962.726562 374.730469 966.628906 374.730469 Z M 931.589844 432.445312 C 931.589844 428.539062 934.75 425.378906 938.65625 425.378906 L 1059.390625 425.378906 C 1063.292969 425.378906 1066.457031 428.539062 1066.457031 432.445312 C 1066.457031 436.347656 1063.292969 439.511719 1059.390625 439.511719 L 938.65625 439.511719 C 934.75 439.511719 931.589844 436.347656 931.589844 432.445312 Z M 1020.222656 476.023438 C 1024.125 476.023438 1027.292969 479.191406 1027.292969 483.089844 C 1027.292969 486.992188 1024.125 490.160156 1020.222656 490.160156 L 938.65625 490.160156 C 934.75 490.160156 931.589844 486.992188 931.589844 483.089844 C 931.589844 479.191406 934.75 476.023438 938.65625 476.023438 Z M 1103.632812 314.714844 L 1103.632812 539.332031 C 1103.632812 543.234375 1100.46875 546.398438 1096.566406 546.398438 L 901.476562 546.398438 C 897.574219 546.398438 894.410156 543.234375 894.410156 539.332031 L 894.410156 314.714844 C 894.410156 310.8125 897.574219 307.648438 901.476562 307.648438 L 932.976562 307.648438 L 932.976562 321.78125 L 908.546875 321.78125 L 908.546875 532.265625 L 1089.5 532.265625 L 1089.5 321.78125 L 1065.070312 321.78125 L 1065.070312 307.648438 L 1096.566406 307.648438 C 1100.46875 307.648438 1103.632812 310.8125 1103.632812 314.714844 Z M 1103.632812 314.714844 " fill-opacity="1" fill-rule="nonzero"/></g><path fill="#ffd4aa" d="M 969.199219 671.8125 L 1047.480469 671.8125 L 1047.480469 657.304688 L 1047.492188 656.210938 L 1047.527344 655.121094 L 1047.585938 654.03125 L 1047.667969 652.945312 L 1047.769531 651.855469 L 1047.898438 650.773438 L 1048.046875 649.691406 L 1048.222656 648.613281 L 1048.417969 647.539062 L 1048.636719 646.472656 L 1048.878906 645.40625 L 1049.144531 644.347656 L 1049.429688 643.292969 L 1049.738281 642.246094 L 1050.070312 641.207031 L 1050.421875 640.175781 L 1050.796875 639.148438 L 1051.195312 638.132812 L 1051.613281 637.125 L 1052.050781 636.125 L 1052.511719 635.136719 L 1052.996094 634.15625 L 1053.496094 633.1875 L 1054.019531 632.230469 L 1054.5625 631.28125 L 1055.125 630.347656 L 1055.710938 629.425781 L 1056.3125 628.515625 L 1056.933594 627.617188 L 1057.605469 626.644531 L 1058.261719 625.660156 L 1058.894531 624.660156 L 1059.507812 623.648438 L 1060.101562 622.625 L 1060.671875 621.585938 L 1061.222656 620.539062 L 1061.75 619.480469 L 1062.253906 618.410156 L 1062.738281 617.332031 L 1063.199219 616.242188 L 1063.640625 615.140625 L 1064.054688 614.035156 L 1064.449219 612.917969 L 1064.820312 611.792969 L 1065.167969 610.664062 L 1065.492188 609.523438 L 1065.792969 608.378906 L 1066.070312 607.230469 L 1066.324219 606.074219 L 1066.554688 604.914062 L 1066.757812 603.746094 L 1066.941406 602.578125 L 1067.097656 601.40625 L 1067.230469 600.230469 L 1067.339844 599.050781 L 1067.425781 597.871094 L 1067.484375 596.6875 L 1067.523438 595.503906 L 1067.535156 594.320312 L 1067.535156 526.800781 L 1067.523438 526.222656 L 1067.488281 525.644531 L 1067.429688 525.070312 L 1067.347656 524.5 L 1067.246094 523.929688 L 1067.117188 523.367188 L 1066.96875 522.808594 L 1066.796875 522.257812 L 1066.605469 521.714844 L 1066.386719 521.179688 L 1066.152344 520.652344 L 1065.894531 520.136719 L 1065.613281 519.628906 L 1065.316406 519.132812 L 1064.996094 518.652344 L 1064.660156 518.183594 L 1064.304688 517.730469 L 1063.929688 517.289062 L 1063.539062 516.867188 L 1063.128906 516.457031 L 1062.707031 516.066406 L 1062.265625 515.691406 L 1061.8125 515.335938 L 1061.34375 514.996094 L 1060.859375 514.679688 L 1060.367188 514.378906 L 1059.863281 514.101562 L 1059.34375 513.84375 L 1058.820312 513.605469 L 1058.28125 513.390625 L 1057.738281 513.195312 L 1057.1875 513.023438 L 1056.628906 512.875 L 1056.066406 512.75 L 1055.5 512.644531 L 1054.925781 512.5625 L 1054.351562 512.503906 L 1053.777344 512.46875 L 1053.199219 512.457031 L 1052.621094 512.46875 L 1052.046875 512.503906 L 1051.472656 512.5625 L 1050.902344 512.644531 L 1050.332031 512.75 L 1049.769531 512.875 L 1049.210938 513.023438 L 1048.660156 513.195312 L 1048.117188 513.390625 L 1047.582031 513.605469 L 1047.054688 513.84375 L 1046.539062 514.101562 L 1046.03125 514.378906 L 1045.539062 514.679688 L 1045.058594 514.996094 L 1044.589844 515.335938 L 1044.132812 515.691406 L 1043.695312 516.066406 L 1043.269531 516.457031 L 1042.863281 516.867188 L 1042.46875 517.289062 L 1042.097656 517.730469 L 1041.738281 518.183594 L 1041.402344 518.652344 L 1041.085938 519.132812 L 1040.785156 519.628906 L 1040.507812 520.136719 L 1040.25 520.652344 L 1040.011719 521.179688 L 1039.796875 521.714844 L 1039.601562 522.257812 L 1039.429688 522.808594 L 1039.28125 523.367188 L 1039.15625 523.929688 L 1039.050781 524.5 L 1038.96875 525.070312 L 1038.910156 525.644531 L 1038.875 526.222656 L 1038.863281 526.800781 L 1038.863281 514.535156 L 1038.851562 513.957031 L 1038.816406 513.378906 L 1038.761719 512.800781 L 1038.679688 512.226562 L 1038.574219 511.65625 L 1038.445312 511.09375 L 1038.296875 510.53125 L 1038.125 509.980469 L 1037.929688 509.433594 L 1037.714844 508.894531 L 1037.476562 508.367188 L 1037.21875 507.847656 L 1036.9375 507.339844 L 1036.636719 506.84375 L 1036.320312 506.359375 L 1035.980469 505.890625 L 1035.621094 505.433594 L 1035.246094 504.992188 L 1034.855469 504.566406 L 1034.445312 504.15625 L 1034.019531 503.761719 L 1033.578125 503.386719 L 1033.121094 503.03125 L 1032.652344 502.691406 L 1032.167969 502.371094 L 1031.671875 502.070312 L 1031.164062 501.792969 L 1030.644531 501.535156 L 1030.117188 501.296875 L 1029.578125 501.078125 L 1029.035156 500.882812 L 1028.480469 500.710938 L 1027.921875 500.5625 L 1027.355469 500.433594 L 1026.785156 500.332031 L 1026.210938 500.25 L 1025.636719 500.191406 L 1025.058594 500.15625 L 1024.476562 500.144531 L 1023.898438 500.15625 L 1023.320312 500.191406 L 1022.742188 500.25 L 1022.171875 500.332031 L 1021.601562 500.433594 L 1021.035156 500.5625 L 1020.476562 500.710938 L 1019.921875 500.882812 L 1019.375 501.078125 L 1018.839844 501.296875 L 1018.308594 501.535156 L 1017.792969 501.792969 L 1017.285156 502.070312 L 1016.789062 502.371094 L 1016.304688 502.691406 L 1015.835938 503.03125 L 1015.378906 503.386719 L 1014.9375 503.761719 L 1014.511719 504.15625 L 1014.101562 504.566406 L 1013.707031 504.992188 L 1013.332031 505.433594 L 1012.976562 505.890625 L 1012.636719 506.359375 L 1012.316406 506.84375 L 1012.019531 507.339844 L 1011.738281 507.847656 L 1011.480469 508.367188 L 1011.242188 508.894531 L 1011.023438 509.433594 L 1010.832031 509.980469 L 1010.660156 510.53125 L 1010.507812 511.09375 L 1010.382812 511.65625 L 1010.277344 512.226562 L 1010.195312 512.800781 L 1010.136719 513.378906 L 1010.101562 513.957031 L 1010.089844 514.535156 L 1010.089844 509.046875 L 1010.078125 508.46875 L 1010.042969 507.890625 L 1009.984375 507.3125 L 1009.90625 506.738281 L 1009.800781 506.167969 L 1009.671875 505.605469 L 1009.523438 505.042969 L 1009.351562 504.492188 L 1009.15625 503.945312 L 1008.9375 503.40625 L 1008.703125 502.878906 L 1008.441406 502.359375 L 1008.164062 501.851562 L 1007.863281 501.355469 L 1007.542969 500.871094 L 1007.207031 500.402344 L 1006.847656 499.945312 L 1006.472656 499.503906 L 1006.078125 499.078125 L 1005.667969 498.667969 L 1005.246094 498.273438 L 1004.804688 497.898438 L 1004.347656 497.542969 L 1003.875 497.203125 L 1003.394531 496.882812 L 1002.898438 496.582031 L 1002.390625 496.304688 L 1001.871094 496.046875 L 1001.34375 495.808594 L 1000.804688 495.589844 L 1000.257812 495.394531 L 999.707031 495.222656 L 999.148438 495.074219 L 998.582031 494.945312 L 998.011719 494.84375 L 997.4375 494.761719 L 996.859375 494.703125 L 996.28125 494.667969 L 995.703125 494.65625 L 995.125 494.667969 L 994.546875 494.703125 L 993.96875 494.761719 L 993.394531 494.84375 L 992.824219 494.945312 L 992.261719 495.074219 L 991.703125 495.222656 L 991.148438 495.394531 L 990.601562 495.589844 L 990.066406 495.808594 L 989.535156 496.046875 L 989.019531 496.304688 L 988.511719 496.582031 L 988.015625 496.882812 L 987.53125 497.203125 L 987.0625 497.542969 L 986.605469 497.898438 L 986.164062 498.273438 L 985.738281 498.667969 L 985.328125 499.078125 L 984.933594 499.503906 L 984.558594 499.945312 L 984.203125 500.402344 L 983.863281 500.871094 L 983.542969 501.355469 L 983.246094 501.851562 L 982.964844 502.359375 L 982.707031 502.878906 L 982.46875 503.40625 L 982.25 503.945312 L 982.058594 504.492188 L 981.886719 505.042969 L 981.734375 505.605469 L 981.609375 506.167969 L 981.503906 506.738281 L 981.421875 507.3125 L 981.363281 507.890625 L 981.328125 508.46875 L 981.316406 509.046875 L 981.316406 464.453125 L 981.304688 463.875 L 981.269531 463.296875 L 981.210938 462.722656 L 981.132812 462.152344 L 981.027344 461.585938 L 980.898438 461.019531 L 980.75 460.460938 L 980.578125 459.910156 L 980.386719 459.367188 L 980.167969 458.832031 L 979.933594 458.304688 L 979.675781 457.789062 L 979.394531 457.28125 L 979.097656 456.789062 L 978.777344 456.304688 L 978.441406 455.835938 L 978.085938 455.382812 L 977.710938 454.941406 L 977.320312 454.519531 L 976.914062 454.109375 L 976.488281 453.71875 L 976.046875 453.34375 L 975.59375 452.988281 L 975.125 452.652344 L 974.644531 452.332031 L 974.148438 452.035156 L 973.644531 451.753906 L 973.128906 451.496094 L 972.601562 451.261719 L 972.066406 451.042969 L 971.519531 450.851562 L 970.96875 450.679688 L 970.414062 450.527344 L 969.847656 450.402344 L 969.28125 450.296875 L 968.710938 450.21875 L 968.136719 450.160156 L 967.558594 450.125 L 966.980469 450.113281 L 966.40625 450.125 L 965.828125 450.160156 L 965.253906 450.21875 L 964.683594 450.296875 L 964.113281 450.402344 L 963.550781 450.527344 L 962.992188 450.679688 L 962.441406 450.851562 L 961.898438 451.042969 L 961.363281 451.261719 L 960.835938 451.496094 L 960.320312 451.753906 L 959.8125 452.035156 L 959.320312 452.332031 L 958.839844 452.652344 L 958.371094 452.988281 L 957.914062 453.34375 L 957.476562 453.71875 L 957.050781 454.109375 L 956.644531 454.519531 L 956.253906 454.941406 L 955.878906 455.382812 L 955.523438 455.835938 L 955.183594 456.304688 L 954.867188 456.789062 L 954.566406 457.28125 L 954.289062 457.789062 L 954.03125 458.304688 L 953.792969 458.832031 L 953.578125 459.367188 L 953.382812 459.910156 L 953.210938 460.460938 L 953.0625 461.019531 L 952.9375 461.585938 L 952.832031 462.152344 L 952.75 462.722656 L 952.691406 463.296875 L 952.660156 463.875 L 952.648438 464.453125 L 952.648438 549.988281 L 952.308594 549.257812 L 951.953125 548.539062 L 951.574219 547.832031 L 951.171875 547.132812 L 950.75 546.449219 L 950.3125 545.777344 L 949.851562 545.117188 L 949.371094 544.472656 L 948.871094 543.839844 L 948.355469 543.226562 L 947.820312 542.625 L 947.265625 542.042969 L 946.695312 541.476562 L 946.109375 540.925781 L 945.507812 540.394531 L 944.890625 539.878906 L 944.253906 539.382812 L 943.609375 538.90625 L 942.945312 538.453125 L 942.273438 538.015625 L 941.585938 537.597656 L 940.886719 537.199219 L 940.175781 536.824219 L 939.453125 536.472656 L 938.722656 536.136719 L 937.980469 535.828125 L 937.230469 535.539062 L 936.472656 535.273438 L 935.707031 535.027344 L 934.933594 534.808594 L 934.15625 534.609375 L 933.371094 534.433594 L 932.582031 534.285156 L 931.789062 534.15625 L 930.992188 534.050781 L 930.191406 533.972656 L 929.390625 533.914062 L 928.585938 533.882812 L 927.78125 533.871094 L 926.980469 533.886719 L 926.175781 533.925781 L 925.375 533.988281 L 924.574219 534.074219 L 924.003906 534.15625 L 923.441406 534.261719 L 922.878906 534.386719 L 922.324219 534.535156 L 921.773438 534.707031 L 921.230469 534.902344 L 920.695312 535.117188 L 920.171875 535.351562 L 919.65625 535.609375 L 919.152344 535.886719 L 918.660156 536.183594 L 918.179688 536.5 L 917.710938 536.835938 L 917.257812 537.191406 L 916.816406 537.5625 L 916.394531 537.949219 L 915.984375 538.355469 L 915.59375 538.777344 L 915.21875 539.214844 L 914.863281 539.667969 L 914.523438 540.132812 L 914.203125 540.613281 L 913.902344 541.105469 L 913.625 541.605469 L 913.363281 542.121094 L 913.125 542.644531 L 912.90625 543.179688 L 912.710938 543.71875 L 912.535156 544.269531 L 912.382812 544.824219 L 912.253906 545.382812 L 912.144531 545.949219 L 912.058594 546.519531 L 911.996094 547.089844 L 911.957031 547.664062 L 911.941406 548.242188 L 911.949219 548.816406 L 911.980469 549.390625 L 912.03125 549.964844 L 912.109375 550.535156 L 912.207031 551.105469 L 912.328125 551.667969 L 912.46875 552.222656 L 912.636719 552.777344 L 912.824219 553.320312 L 913.03125 553.855469 L 913.261719 554.382812 L 913.515625 554.902344 L 913.785156 555.410156 L 914.078125 555.90625 L 914.390625 556.390625 L 914.71875 556.863281 L 915.070312 557.320312 L 915.4375 557.761719 L 915.820312 558.191406 L 916.222656 558.605469 L 916.640625 559 L 917.074219 559.378906 L 917.523438 559.742188 L 917.984375 560.085938 L 918.460938 560.410156 L 918.949219 560.714844 L 919.449219 561 L 919.957031 561.265625 L 920.480469 561.507812 L 921.011719 561.734375 L 921.550781 561.933594 L 922.160156 562.164062 L 922.761719 562.414062 L 923.351562 562.6875 L 923.933594 562.980469 L 924.5 563.296875 L 925.058594 563.632812 L 925.601562 563.992188 L 926.132812 564.367188 L 926.648438 564.765625 L 927.148438 565.179688 L 927.632812 565.617188 L 928.101562 566.070312 L 928.550781 566.539062 L 928.984375 567.023438 L 929.398438 567.527344 L 929.796875 568.042969 L 930.171875 568.574219 L 930.527344 569.121094 L 930.863281 569.675781 L 931.179688 570.246094 L 931.46875 570.828125 L 931.742188 571.421875 L 931.992188 572.023438 L 932.214844 572.632812 L 932.417969 573.253906 L 932.597656 573.878906 L 932.757812 574.511719 L 932.890625 575.148438 L 932.996094 575.789062 L 933.082031 576.433594 L 933.144531 577.082031 L 933.179688 577.734375 L 933.191406 578.386719 L 933.191406 584.078125 L 933.203125 585.351562 L 933.238281 586.621094 L 933.296875 587.890625 L 933.382812 589.160156 L 933.488281 590.429688 L 933.617188 591.695312 L 933.773438 592.957031 L 933.949219 594.214844 L 934.148438 595.472656 L 934.375 596.722656 L 934.621094 597.96875 L 934.890625 599.214844 L 935.1875 600.449219 L 935.503906 601.683594 L 935.84375 602.90625 L 936.207031 604.125 L 936.589844 605.339844 L 937 606.542969 L 937.429688 607.738281 L 937.882812 608.929688 L 938.355469 610.109375 L 938.851562 611.277344 L 939.371094 612.441406 L 939.910156 613.589844 L 940.472656 614.734375 L 941.054688 615.863281 L 941.65625 616.984375 L 942.28125 618.089844 L 942.925781 619.1875 L 943.589844 620.269531 L 944.277344 621.34375 L 944.980469 622.398438 L 945.703125 623.445312 L 946.449219 624.476562 L 947.210938 625.492188 L 947.992188 626.496094 L 948.792969 627.484375 L 949.613281 628.457031 L 950.449219 629.414062 L 951.304688 630.355469 L 952.175781 631.28125 L 953.066406 632.191406 L 953.96875 633.085938 L 954.890625 633.960938 L 955.832031 634.816406 L 956.785156 635.65625 L 957.753906 636.480469 L 958.738281 637.285156 L 959.738281 638.070312 L 960.339844 638.546875 L 960.921875 639.042969 L 961.488281 639.554688 L 962.039062 640.085938 L 962.574219 640.636719 L 963.089844 641.199219 L 963.589844 641.78125 L 964.070312 642.378906 L 964.53125 642.988281 L 964.972656 643.613281 L 965.394531 644.253906 L 965.792969 644.90625 L 966.175781 645.570312 L 966.535156 646.246094 L 966.871094 646.933594 L 967.1875 647.628906 L 967.480469 648.335938 L 967.753906 649.054688 L 968.003906 649.777344 L 968.226562 650.507812 L 968.429688 651.246094 L 968.609375 651.992188 L 968.765625 652.742188 L 968.898438 653.496094 L 969.007812 654.253906 L 969.089844 655.011719 L 969.152344 655.777344 L 969.1875 656.542969 L 969.199219 657.308594 L 969.199219 671.816406 Z M 969.199219 671.8125 " fill-opacity="1" fill-rule="nonzero"/><path fill="#ffd4aa" d="M 1056.933594 627.617188 L 1057.605469 626.644531 L 1058.261719 625.65625 L 1058.894531 624.65625 L 1059.507812 623.644531 L 1060.097656 622.621094 L 1060.671875 621.585938 L 1061.21875 620.535156 L 1061.746094 619.476562 L 1062.253906 618.40625 L 1062.738281 617.328125 L 1063.199219 616.238281 L 1063.636719 615.140625 L 1064.054688 614.03125 L 1064.449219 612.914062 L 1064.820312 611.792969 L 1065.167969 610.660156 L 1065.492188 609.523438 L 1065.792969 608.378906 L 1066.070312 607.226562 L 1066.320312 606.070312 L 1066.550781 604.910156 L 1066.757812 603.746094 L 1066.9375 602.574219 L 1067.097656 601.402344 L 1067.230469 600.226562 L 1067.339844 599.046875 L 1067.425781 597.867188 L 1067.484375 596.683594 L 1067.523438 595.503906 L 1067.535156 594.320312 M 952.644531 464.449219 L 952.644531 567.511719 M 981.316406 464.449219 L 981.316406 553.835938 M 1067.53125 526.796875 L 1067.53125 594.320312 M 1038.863281 514.535156 L 1038.863281 553.835938 M 1010.089844 509.046875 L 1010.089844 553.835938 M 933.1875 584.074219 L 933.1875 578.378906 M 969.195312 657.304688 L 969.195312 671.8125 M 1047.480469 657.304688 L 1047.480469 671.8125 M 981.316406 464.449219 L 981.304688 463.871094 L 981.269531 463.296875 L 981.210938 462.71875 L 981.132812 462.148438 L 981.027344 461.582031 L 980.898438 461.015625 L 980.75 460.460938 L 980.578125 459.90625 L 980.386719 459.363281 L 980.167969 458.828125 L 979.933594 458.300781 L 979.675781 457.785156 L 979.394531 457.277344 L 979.097656 456.785156 L 978.777344 456.304688 L 978.441406 455.835938 L 978.085938 455.378906 L 977.710938 454.941406 L 977.320312 454.515625 L 976.910156 454.105469 L 976.488281 453.714844 L 976.046875 453.339844 L 975.59375 452.984375 L 975.125 452.648438 L 974.644531 452.328125 L 974.148438 452.03125 L 973.644531 451.75 L 973.125 451.492188 L 972.601562 451.257812 L 972.066406 451.039062 L 971.519531 450.847656 L 970.96875 450.675781 L 970.414062 450.527344 L 969.847656 450.398438 L 969.28125 450.292969 L 968.710938 450.214844 L 968.136719 450.15625 L 967.558594 450.121094 L 966.980469 450.109375 L 966.40625 450.121094 L 965.828125 450.15625 L 965.253906 450.214844 L 964.683594 450.292969 L 964.113281 450.398438 L 963.550781 450.527344 L 962.992188 450.675781 L 962.441406 450.847656 L 961.898438 451.039062 L 961.363281 451.257812 L 960.835938 451.492188 L 960.320312 451.75 L 959.8125 452.03125 L 959.320312 452.328125 L 958.839844 452.648438 L 958.371094 452.984375 L 957.914062 453.339844 L 957.476562 453.714844 L 957.050781 454.105469 L 956.644531 454.515625 L 956.253906 454.941406 L 955.878906 455.378906 L 955.523438 455.835938 L 955.183594 456.304688 L 954.867188 456.785156 L 954.566406 457.277344 L 954.289062 457.785156 L 954.03125 458.300781 L 953.792969 458.828125 L 953.578125 459.363281 L 953.382812 459.90625 L 953.210938 460.460938 L 953.0625 461.015625 L 952.9375 461.582031 L 952.832031 462.148438 L 952.75 462.71875 L 952.691406 463.296875 L 952.660156 463.871094 L 952.648438 464.449219 M 959.738281 638.0625 L 958.738281 637.277344 L 957.753906 636.472656 L 956.785156 635.652344 L 955.832031 634.8125 L 954.890625 633.953125 L 953.96875 633.078125 L 953.0625 632.183594 L 952.175781 631.277344 L 951.304688 630.351562 L 950.449219 629.410156 L 949.613281 628.449219 L 948.792969 627.476562 L 947.992188 626.488281 L 947.210938 625.488281 L 946.449219 624.46875 L 945.703125 623.4375 L 944.980469 622.394531 L 944.273438 621.335938 L 943.589844 620.265625 L 942.925781 619.179688 L 942.28125 618.085938 L 941.65625 616.976562 L 941.054688 615.855469 L 940.472656 614.726562 L 939.910156 613.585938 L 939.371094 612.433594 L 938.851562 611.273438 L 938.355469 610.101562 L 937.878906 608.921875 L 937.429688 607.734375 L 937 606.535156 L 936.589844 605.332031 L 936.207031 604.121094 L 935.84375 602.902344 L 935.503906 601.675781 L 935.1875 600.445312 L 934.890625 599.207031 L 934.621094 597.964844 L 934.375 596.714844 L 934.148438 595.464844 L 933.949219 594.207031 L 933.773438 592.949219 L 933.617188 591.6875 L 933.488281 590.421875 L 933.382812 589.15625 L 933.296875 587.886719 L 933.238281 586.617188 L 933.203125 585.34375 L 933.191406 584.074219 M 924.574219 534.066406 L 924.003906 534.148438 L 923.4375 534.25 L 922.878906 534.378906 L 922.320312 534.527344 L 921.773438 534.699219 L 921.230469 534.890625 L 920.695312 535.105469 L 920.171875 535.34375 L 919.65625 535.601562 L 919.152344 535.878906 L 918.660156 536.175781 L 918.175781 536.492188 L 917.710938 536.828125 L 917.257812 537.179688 L 916.816406 537.554688 L 916.390625 537.941406 L 915.984375 538.347656 L 915.59375 538.769531 L 915.21875 539.207031 L 914.863281 539.660156 L 914.523438 540.125 L 914.203125 540.605469 L 913.902344 541.09375 L 913.625 541.597656 L 913.363281 542.113281 L 913.125 542.636719 L 912.90625 543.167969 L 912.710938 543.710938 L 912.535156 544.257812 L 912.382812 544.8125 L 912.253906 545.375 L 912.144531 545.941406 L 912.058594 546.511719 L 911.996094 547.082031 L 911.957031 547.65625 L 911.941406 548.234375 L 911.949219 548.808594 L 911.976562 549.382812 L 912.03125 549.957031 L 912.105469 550.527344 L 912.207031 551.09375 L 912.328125 551.65625 L 912.46875 552.214844 L 912.636719 552.765625 L 912.824219 553.3125 L 913.03125 553.847656 L 913.261719 554.375 L 913.515625 554.894531 L 913.785156 555.402344 L 914.078125 555.898438 L 914.390625 556.382812 L 914.71875 556.851562 L 915.070312 557.3125 L 915.4375 557.753906 L 915.820312 558.183594 L 916.222656 558.59375 L 916.640625 558.992188 L 917.074219 559.371094 L 917.523438 559.730469 L 917.984375 560.074219 L 918.460938 560.398438 L 918.949219 560.703125 L 919.449219 560.992188 L 919.957031 561.253906 L 920.480469 561.5 L 921.011719 561.722656 L 921.550781 561.925781 M 1010.09375 509.042969 L 1010.082031 508.460938 L 1010.046875 507.882812 L 1009.988281 507.308594 L 1009.90625 506.734375 L 1009.800781 506.164062 L 1009.675781 505.597656 L 1009.523438 505.039062 L 1009.351562 504.484375 L 1009.15625 503.9375 L 1008.941406 503.402344 L 1008.703125 502.871094 L 1008.445312 502.355469 L 1008.164062 501.847656 L 1007.863281 501.347656 L 1007.546875 500.867188 L 1007.207031 500.394531 L 1006.847656 499.941406 L 1006.472656 499.496094 L 1006.082031 499.070312 L 1005.671875 498.664062 L 1005.246094 498.269531 L 1004.804688 497.894531 L 1004.347656 497.535156 L 1003.878906 497.195312 L 1003.394531 496.878906 L 1002.898438 496.578125 L 1002.390625 496.296875 L 1001.871094 496.039062 L 1001.34375 495.800781 L 1000.808594 495.585938 L 1000.261719 495.390625 L 999.707031 495.21875 L 999.148438 495.066406 L 998.582031 494.941406 L 998.011719 494.835938 L 997.4375 494.753906 L 996.863281 494.695312 L 996.285156 494.660156 L 995.707031 494.648438 L 995.125 494.660156 L 994.546875 494.695312 L 993.972656 494.753906 L 993.398438 494.835938 L 992.828125 494.941406 L 992.261719 495.066406 L 991.703125 495.21875 L 991.148438 495.390625 L 990.605469 495.585938 L 990.066406 495.800781 L 989.539062 496.039062 L 989.019531 496.296875 L 988.511719 496.578125 L 988.015625 496.878906 L 987.53125 497.195312 L 987.0625 497.535156 L 986.605469 497.894531 L 986.164062 498.269531 L 985.738281 498.664062 L 985.328125 499.070312 L 984.9375 499.496094 L 984.5625 499.941406 L 984.203125 500.394531 L 983.867188 500.867188 L 983.546875 501.347656 L 983.246094 501.847656 L 982.964844 502.355469 L 982.707031 502.871094 L 982.46875 503.402344 L 982.253906 503.9375 L 982.058594 504.484375 L 981.886719 505.039062 L 981.738281 505.597656 L 981.609375 506.164062 L 981.503906 506.734375 L 981.421875 507.308594 L 981.363281 507.882812 L 981.328125 508.460938 L 981.320312 509.042969 M 1010.09375 514.53125 L 1010.105469 513.949219 L 1010.140625 513.371094 L 1010.199219 512.796875 L 1010.277344 512.222656 L 1010.382812 511.652344 L 1010.511719 511.085938 L 1010.660156 510.527344 L 1010.832031 509.972656 L 1011.027344 509.425781 L 1011.242188 508.890625 L 1011.480469 508.359375 L 1011.742188 507.84375 L 1012.019531 507.335938 L 1012.320312 506.839844 L 1012.640625 506.355469 L 1012.976562 505.882812 L 1013.335938 505.429688 L 1013.710938 504.988281 L 1014.101562 504.558594 L 1014.511719 504.152344 L 1014.9375 503.757812 L 1015.378906 503.382812 L 1015.835938 503.023438 L 1016.308594 502.6875 L 1016.789062 502.367188 L 1017.285156 502.066406 L 1017.792969 501.785156 L 1018.3125 501.527344 L 1018.839844 501.289062 L 1019.378906 501.074219 L 1019.921875 500.878906 L 1020.476562 500.707031 L 1021.035156 500.554688 L 1021.601562 500.429688 L 1022.171875 500.324219 L 1022.746094 500.242188 L 1023.320312 500.183594 L 1023.898438 500.148438 L 1024.480469 500.136719 L 1025.058594 500.148438 L 1025.636719 500.183594 L 1026.214844 500.242188 L 1026.789062 500.324219 L 1027.355469 500.429688 L 1027.921875 500.554688 L 1028.480469 500.707031 L 1029.035156 500.878906 L 1029.582031 501.074219 L 1030.117188 501.289062 L 1030.648438 501.527344 L 1031.164062 501.785156 L 1031.671875 502.066406 L 1032.167969 502.367188 L 1032.652344 502.6875 L 1033.121094 503.023438 L 1033.578125 503.382812 L 1034.019531 503.757812 L 1034.445312 504.152344 L 1034.855469 504.558594 L 1035.25 504.988281 L 1035.625 505.429688 L 1035.980469 505.882812 L 1036.320312 506.355469 L 1036.640625 506.839844 L 1036.9375 507.335938 L 1037.21875 507.84375 L 1037.476562 508.359375 L 1037.714844 508.890625 L 1037.929688 509.425781 L 1038.125 509.972656 L 1038.296875 510.527344 L 1038.449219 511.085938 L 1038.574219 511.652344 L 1038.679688 512.222656 L 1038.761719 512.796875 L 1038.820312 513.371094 L 1038.855469 513.949219 L 1038.867188 514.53125 M 933.195312 578.375 L 933.183594 577.722656 L 933.144531 577.074219 L 933.085938 576.425781 L 933 575.777344 L 932.890625 575.136719 L 932.757812 574.5 L 932.601562 573.867188 L 932.421875 573.242188 L 932.21875 572.625 L 931.992188 572.011719 L 931.746094 571.410156 L 931.472656 570.820312 L 931.179688 570.238281 L 930.867188 569.667969 L 930.53125 569.109375 L 930.175781 568.5625 L 929.796875 568.03125 L 929.402344 567.515625 L 928.988281 567.011719 L 928.554688 566.527344 L 928.105469 566.058594 L 927.636719 565.605469 L 927.152344 565.171875 L 926.652344 564.753906 L 926.132812 564.359375 L 925.605469 563.980469 L 925.058594 563.621094 L 924.503906 563.285156 L 923.933594 562.96875 L 923.355469 562.675781 L 922.761719 562.402344 L 922.160156 562.152344 L 921.550781 561.925781 M 924.578125 534.0625 L 925.378906 533.976562 L 926.179688 533.914062 L 926.980469 533.875 L 927.785156 533.863281 L 928.589844 533.871094 L 929.390625 533.902344 L 930.195312 533.960938 L 930.992188 534.042969 L 931.789062 534.144531 L 932.582031 534.273438 L 933.375 534.425781 L 934.15625 534.597656 L 934.9375 534.796875 L 935.710938 535.019531 L 936.476562 535.261719 L 937.234375 535.527344 L 937.984375 535.816406 L 938.726562 536.128906 L 939.457031 536.460938 L 940.179688 536.8125 L 940.886719 537.191406 L 941.589844 537.585938 L 942.273438 538.003906 L 942.949219 538.441406 L 943.609375 538.898438 L 944.257812 539.375 L 944.890625 539.871094 L 945.507812 540.382812 L 946.113281 540.914062 L 946.699219 541.464844 L 947.269531 542.03125 L 947.820312 542.617188 L 948.355469 543.214844 L 948.875 543.832031 L 949.371094 544.460938 L 949.851562 545.105469 L 950.3125 545.765625 L 950.753906 546.4375 L 951.175781 547.121094 L 951.574219 547.820312 L 951.953125 548.527344 L 952.3125 549.246094 L 952.648438 549.976562 M 969.203125 657.296875 L 969.1875 656.53125 L 969.152344 655.765625 L 969.09375 655.003906 L 969.007812 654.242188 L 968.898438 653.484375 L 968.769531 652.730469 L 968.613281 651.980469 L 968.433594 651.234375 L 968.230469 650.496094 L 968.003906 649.765625 L 967.757812 649.042969 L 967.484375 648.328125 L 967.191406 647.621094 L 966.875 646.921875 L 966.535156 646.234375 L 966.175781 645.558594 L 965.796875 644.894531 L 965.394531 644.242188 L 964.976562 643.605469 L 964.535156 642.976562 L 964.070312 642.367188 L 963.59375 641.769531 L 963.09375 641.1875 L 962.578125 640.625 L 962.042969 640.078125 L 961.492188 639.546875 L 960.925781 639.03125 L 960.339844 638.535156 L 959.742188 638.058594 M 1047.484375 657.296875 L 1047.496094 656.203125 L 1047.53125 655.113281 L 1047.589844 654.023438 L 1047.667969 652.933594 L 1047.773438 651.847656 L 1047.902344 650.765625 L 1048.050781 649.683594 L 1048.222656 648.605469 L 1048.421875 647.53125 L 1048.640625 646.460938 L 1048.882812 645.398438 L 1049.144531 644.339844 L 1049.429688 643.285156 L 1049.742188 642.238281 L 1050.070312 641.199219 L 1050.425781 640.167969 L 1050.800781 639.140625 L 1051.195312 638.125 L 1051.613281 637.117188 L 1052.054688 636.117188 L 1052.515625 635.128906 L 1052.996094 634.148438 L 1053.5 633.179688 L 1054.023438 632.222656 L 1054.566406 631.273438 L 1055.128906 630.339844 L 1055.710938 629.417969 L 1056.3125 628.507812 L 1056.933594 627.609375 M 952.652344 567.503906 L 952.640625 568.484375 L 952.605469 569.460938 L 952.546875 570.441406 L 952.464844 571.414062 L 952.359375 572.386719 L 952.230469 573.359375 L 952.078125 574.324219 L 951.902344 575.289062 L 951.703125 576.246094 L 951.480469 577.199219 L 951.238281 578.148438 L 950.972656 579.089844 L 950.683594 580.027344 L 950.371094 580.953125 L 950.035156 581.875 L 949.679688 582.785156 L 949.320312 583.710938 L 948.980469 584.644531 L 948.664062 585.585938 L 948.367188 586.53125 L 948.09375 587.488281 L 947.839844 588.449219 L 947.613281 589.414062 L 947.40625 590.386719 L 947.222656 591.363281 L 947.0625 592.339844 L 946.921875 593.324219 L 946.808594 594.3125 L 946.714844 595.300781 M 1038.867188 526.792969 L 1038.878906 526.214844 L 1038.914062 525.640625 L 1038.972656 525.066406 L 1039.054688 524.492188 L 1039.15625 523.925781 L 1039.285156 523.363281 L 1039.433594 522.804688 L 1039.605469 522.253906 L 1039.800781 521.707031 L 1040.015625 521.171875 L 1040.25 520.644531 L 1040.507812 520.128906 L 1040.789062 519.625 L 1041.085938 519.128906 L 1041.40625 518.648438 L 1041.742188 518.179688 L 1042.097656 517.726562 L 1042.472656 517.285156 L 1042.863281 516.859375 L 1043.273438 516.453125 L 1043.695312 516.058594 L 1044.136719 515.6875 L 1044.589844 515.328125 L 1045.058594 514.992188 L 1045.539062 514.675781 L 1046.035156 514.375 L 1046.539062 514.097656 L 1047.058594 513.839844 L 1047.582031 513.601562 L 1048.121094 513.386719 L 1048.664062 513.191406 L 1049.214844 513.019531 L 1049.773438 512.871094 L 1050.335938 512.742188 L 1050.902344 512.640625 L 1051.472656 512.558594 L 1052.046875 512.5 L 1052.625 512.464844 L 1053.203125 512.453125 L 1053.78125 512.464844 L 1054.355469 512.5 L 1054.929688 512.558594 L 1055.503906 512.640625 L 1056.070312 512.742188 L 1056.632812 512.871094 L 1057.191406 513.019531 L 1057.742188 513.191406 L 1058.285156 513.386719 L 1058.820312 513.601562 L 1059.347656 513.839844 L 1059.863281 514.097656 L 1060.371094 514.375 L 1060.863281 514.675781 L 1061.34375 514.992188 L 1061.8125 515.328125 L 1062.269531 515.6875 L 1062.707031 516.058594 L 1063.132812 516.453125 L 1063.539062 516.859375 L 1063.933594 517.285156 L 1064.304688 517.726562 L 1064.660156 518.179688 L 1065 518.648438 L 1065.316406 519.128906 L 1065.617188 519.625 L 1065.894531 520.128906 L 1066.152344 520.644531 L 1066.390625 521.171875 L 1066.605469 521.707031 L 1066.800781 522.253906 L 1066.972656 522.804688 L 1067.121094 523.363281 L 1067.246094 523.925781 L 1067.351562 524.492188 L 1067.433594 525.066406 L 1067.492188 525.640625 L 1067.527344 526.214844 L 1067.539062 526.792969 " fill-opacity="1" fill-rule="nonzero"/><g clip-path="url(#920f442251)"><path stroke-linecap="round" transform="matrix(0.404564, 0, 0, 0.404715, 869.323666, 390.598066)" fill="none" stroke-linejoin="round" d="M 463.73376 585.644653 L 465.394499 583.241341 L 467.016616 580.799421 L 468.580801 578.328546 L 470.096708 575.828715 L 471.554682 573.299929 L 472.974035 570.742187 L 474.325799 568.145838 L 475.629286 565.530185 L 476.884496 562.885576 L 478.081773 560.221664 L 479.221117 557.528796 L 480.302528 554.816625 L 481.335662 552.075498 L 482.310864 549.315067 L 483.228132 546.544984 L 484.087468 543.745946 L 484.888871 540.937256 L 485.632342 538.109262 L 486.317879 535.261965 L 486.935829 532.405015 L 487.505501 529.538414 L 488.01724 526.662161 L 488.461391 523.766604 L 488.857265 520.871047 L 489.185551 517.965839 L 489.455903 515.050978 L 489.668324 512.136118 L 489.813155 509.211605 L 489.90971 506.296745 L 489.938676 503.372232 M 205.95231 182.476977 L 205.95231 437.131545 M 276.823381 182.476977 L 276.823381 403.340397 M 489.929021 336.53025 L 489.929021 503.372232 M 419.067606 306.233074 L 419.067606 403.340397 M 347.945493 292.672216 L 347.945493 403.340397 M 157.858468 478.055414 L 157.858468 463.983008 M 246.862491 658.998758 L 246.862491 694.845751 M 440.367549 658.998758 L 440.367549 694.845751 M 276.823381 182.476977 L 276.794414 181.048502 L 276.707515 179.629679 L 276.562683 178.201205 L 276.369574 176.792034 L 276.108877 175.392514 L 275.790247 173.992995 L 275.423339 172.622432 L 274.998499 171.251868 L 274.525381 169.91026 L 273.984676 168.587956 L 273.405348 167.284955 L 272.768088 166.01091 L 272.072895 164.756169 L 271.33908 163.540035 L 270.547332 162.352857 L 269.716963 161.194634 L 268.838316 160.065367 L 267.911392 158.984359 L 266.945846 157.932307 L 265.932023 156.918862 L 264.889233 155.953677 L 263.798166 155.027098 L 262.678133 154.148779 L 261.519478 153.31872 L 260.331856 152.527268 L 259.105613 151.793727 L 257.860059 151.098793 L 256.575883 150.46177 L 255.282051 149.882659 L 253.959253 149.342155 L 252.607489 148.869214 L 251.246069 148.444533 L 249.874994 148.077762 L 248.474952 147.759251 L 247.074911 147.498651 L 245.665214 147.305614 L 244.245861 147.160836 L 242.816853 147.073969 L 241.387845 147.045013 L 239.968493 147.073969 L 238.539485 147.160836 L 237.120132 147.305614 L 235.710435 147.498651 L 234.300738 147.759251 L 232.910352 148.077762 L 231.529622 148.444533 L 230.168202 148.869214 L 228.826093 149.342155 L 227.503295 149.882659 L 226.199808 150.46177 L 224.925287 151.098793 L 223.670078 151.793727 L 222.45349 152.527268 L 221.265868 153.31872 L 220.107213 154.148779 L 218.977525 155.027098 L 217.896113 155.953677 L 216.843668 156.918862 L 215.8395 157.932307 L 214.873954 158.984359 L 213.94703 160.065367 L 213.068384 161.194634 L 212.228359 162.352857 L 211.446266 163.540035 L 210.702796 164.756169 L 210.017258 166.01091 L 209.379998 167.284955 L 208.791015 168.587956 L 208.259965 169.91026 L 207.777192 171.251868 L 207.352352 172.622432 L 206.985444 173.992995 L 206.67647 175.392514 L 206.415772 176.792034 L 206.213007 178.201205 L 206.068176 179.629679 L 205.990932 181.048502 L 205.961966 182.476977 M 223.486624 611.453716 L 221.014826 609.513693 L 218.581651 607.52541 L 216.187097 605.498521 L 213.831165 603.423371 L 211.504199 601.299963 L 209.225511 599.137947 L 206.985444 596.927672 L 204.793655 594.688442 L 202.640488 592.400952 L 200.525942 590.074855 L 198.459674 587.700498 L 196.432027 585.297186 L 194.452658 582.855266 L 192.521566 580.384391 L 190.638752 577.865257 L 188.794559 575.317167 L 187.008299 572.740121 L 185.260661 570.124468 L 183.570956 567.47986 L 181.929528 564.796644 L 180.336377 562.094124 L 178.791503 559.352997 L 177.304563 556.582914 L 175.865899 553.793528 L 174.475513 550.975186 L 173.14306 548.127889 L 171.858884 545.261287 L 170.63264 542.365731 L 169.454674 539.45087 L 168.344296 536.516706 L 167.282196 533.553586 L 166.268373 530.580814 L 165.322138 527.588739 L 164.42418 524.57736 L 163.584155 521.546677 L 162.802063 518.506343 L 162.068248 515.446704 L 161.402021 512.377414 L 160.793727 509.28882 L 160.233711 506.200226 L 159.741282 503.092329 L 159.306787 499.984431 L 158.920568 496.866881 L 158.601938 493.73968 L 158.341241 490.612479 L 158.128821 487.475626 L 157.983989 484.338772 L 157.89709 481.192267 L 157.868123 478.055414 M 136.56818 354.492354 L 135.158483 354.695043 L 133.758442 354.945991 L 132.377711 355.264502 L 130.99698 355.631273 L 129.645216 356.055955 L 128.303107 356.528896 L 126.980309 357.059748 L 125.686478 357.648511 L 124.411957 358.285533 L 123.166403 358.970815 L 121.949815 359.704356 L 120.752538 360.486157 L 119.603538 361.316216 L 118.483505 362.184883 L 117.392438 363.111461 L 116.339993 364.066995 L 115.335825 365.070788 L 114.370279 366.113189 L 113.443355 367.194196 L 112.564709 368.313812 L 111.724684 369.462383 L 110.932936 370.649561 L 110.189466 371.856043 L 109.503928 373.101132 L 108.857012 374.375177 L 108.268029 375.668526 L 107.727324 376.981178 L 107.244551 378.322786 L 106.810055 379.674046 L 106.433492 381.04461 L 106.114862 382.434477 L 105.844509 383.833996 L 105.632089 385.243167 L 105.477602 386.652338 L 105.381047 388.071161 L 105.342425 389.499636 L 105.361736 390.918458 L 105.429324 392.337281 L 105.564501 393.756104 L 105.747954 395.165275 L 105.998996 396.564794 L 106.298316 397.954661 L 106.645912 399.334877 L 107.061097 400.695789 L 107.524559 402.047048 L 108.036298 403.369353 L 108.60597 404.672353 L 109.233575 405.95605 L 109.899802 407.210791 L 110.623961 408.436577 L 111.396398 409.633407 L 112.207457 410.79163 L 113.076448 411.930549 L 113.984061 413.021209 L 114.930296 414.082913 L 115.924808 415.096358 L 116.957943 416.080847 L 118.029698 417.017077 L 119.140076 417.905048 L 120.27942 418.754411 L 121.457387 419.555515 L 122.664319 420.30836 L 123.900218 421.022597 L 125.155427 421.669272 L 126.449259 422.277339 L 127.762401 422.827494 L 129.094855 423.329391 M 347.955149 292.662565 L 347.926182 291.224438 L 347.839283 289.795963 L 347.694451 288.377141 L 347.491687 286.958318 L 347.230989 285.549147 L 346.922015 284.149628 L 346.545452 282.769412 L 346.120611 281.398849 L 345.637838 280.047589 L 345.106788 278.725285 L 344.517805 277.412632 L 343.880545 276.138587 L 343.185352 274.883846 L 342.441881 273.648408 L 341.659789 272.46123 L 340.819764 271.293355 L 339.931462 270.17374 L 339.004538 269.073429 L 338.038992 268.021376 L 337.025169 267.017583 L 335.972724 266.042746 L 334.881657 265.116168 L 333.751968 264.228197 L 332.593313 263.388485 L 331.396036 262.606685 L 330.169793 261.863492 L 328.914583 261.168559 L 327.630407 260.531536 L 326.32692 259.942773 L 325.004122 259.411921 L 323.652358 258.929328 L 322.281283 258.504646 L 320.900552 258.128224 L 319.50051 257.819365 L 318.090813 257.558764 L 316.671461 257.356075 L 315.252108 257.211298 L 313.8231 257.124431 L 312.394092 257.095475 L 310.955429 257.124431 L 309.526421 257.211298 L 308.107069 257.356075 L 306.687716 257.558764 L 305.278019 257.819365 L 303.877977 258.128224 L 302.497247 258.504646 L 301.126172 258.929328 L 299.784063 259.411921 L 298.451609 259.942773 L 297.148122 260.531536 L 295.863946 261.168559 L 294.608737 261.863492 L 293.382493 262.606685 L 292.185216 263.388485 L 291.026561 264.228197 L 289.896872 265.116168 L 288.805806 266.042746 L 287.753361 267.017583 L 286.739537 268.021376 L 285.773991 269.073429 L 284.847067 270.17374 L 283.958765 271.293355 L 283.128396 272.46123 L 282.336648 273.648408 L 281.593178 274.883846 L 280.897984 276.138587 L 280.260724 277.412632 L 279.671741 278.725285 L 279.140691 280.047589 L 278.657918 281.398849 L 278.233078 282.769412 L 277.86617 284.149628 L 277.54754 285.549147 L 277.286843 286.958318 L 277.084078 288.377141 L 276.939246 289.795963 L 276.852347 291.224438 L 276.833036 292.662565 M 347.955149 306.223422 L 347.984115 304.785296 L 348.071014 303.356821 L 348.215846 301.937998 L 348.408955 300.519175 L 348.669653 299.110004 L 348.988283 297.710485 L 349.35519 296.33027 L 349.78003 294.959706 L 350.262803 293.608446 L 350.793854 292.286142 L 351.382837 290.97349 L 352.029752 289.699445 L 352.71529 288.444704 L 353.45876 287.218918 L 354.250508 286.022088 L 355.080878 284.854213 L 355.96918 283.734598 L 356.896104 282.643938 L 357.86165 281.582234 L 358.875473 280.578441 L 359.927918 279.603603 L 361.018985 278.677025 L 362.148674 277.789055 L 363.316984 276.958995 L 364.504606 276.167543 L 365.730849 275.42435 L 366.986059 274.729416 L 368.270235 274.092394 L 369.573722 273.50363 L 370.906175 272.972778 L 372.248284 272.490186 L 373.619359 272.065504 L 375.00009 271.689082 L 376.400132 271.380222 L 377.809829 271.119622 L 379.229181 270.916933 L 380.648534 270.772155 L 382.077542 270.685289 L 383.516205 270.656333 L 384.945213 270.685289 L 386.374221 270.772155 L 387.803229 270.916933 L 389.222581 271.119622 L 390.622623 271.380222 L 392.022665 271.689082 L 393.403395 272.065504 L 394.77447 272.490186 L 396.126235 272.972778 L 397.449033 273.50363 L 398.762175 274.092394 L 400.036696 274.729416 L 401.291905 275.42435 L 402.518149 276.167543 L 403.715426 276.958995 L 404.874081 277.789055 L 406.003769 278.677025 L 407.094836 279.603603 L 408.147281 280.578441 L 409.161105 281.582234 L 410.136306 282.643938 L 411.06323 283.734598 L 411.941877 284.854213 L 412.781902 286.022088 L 413.57365 287.218918 L 414.307464 288.444704 L 415.002657 289.699445 L 415.639918 290.97349 L 416.228901 292.286142 L 416.759951 293.608446 L 417.242724 294.959706 L 417.667564 296.33027 L 418.044127 297.710485 L 418.353102 299.110004 L 418.613799 300.519175 L 418.816564 301.937998 L 418.961396 303.356821 L 419.048295 304.785296 L 419.077261 306.223422 M 157.877779 463.973356 L 157.848812 462.361496 L 157.752258 460.759288 L 157.607426 459.15708 L 157.395006 457.554872 L 157.124653 455.971968 L 156.796367 454.398715 L 156.410149 452.835115 L 155.965998 451.290818 L 155.463914 449.765824 L 154.903897 448.250483 L 154.295603 446.764097 L 153.619721 445.306667 L 152.895562 443.86854 L 152.123125 442.459369 L 151.292755 441.079154 L 150.414109 439.727894 L 149.477529 438.415242 L 148.502328 437.141197 L 147.478849 435.896107 L 146.407093 434.699277 L 145.296715 433.541054 L 144.13806 432.421439 L 142.940783 431.350083 L 141.704884 430.317335 L 140.420708 429.342497 L 139.117221 428.406267 L 137.765457 427.518296 L 136.394382 426.688237 L 134.984685 425.906436 L 133.555677 425.182547 L 132.088047 424.506917 L 130.601106 423.889198 L 129.094855 423.329391 M 136.577836 354.482702 L 138.557205 354.270361 L 140.536574 354.115932 L 142.515943 354.019413 L 144.504968 353.990457 L 146.493992 354.009761 L 148.473361 354.086976 L 150.462386 354.231754 L 152.4321 354.434443 L 154.401813 354.685391 L 156.361872 355.003902 L 158.32193 355.380325 L 160.253022 355.805006 L 162.184113 356.297251 L 164.095894 356.847407 L 165.988364 357.445822 L 167.861523 358.102148 L 169.715372 358.816385 L 171.549909 359.588534 L 173.35548 360.408942 L 175.14174 361.277609 L 176.889378 362.213839 L 178.627361 363.188676 L 180.317066 364.221425 L 181.98746 365.302433 L 183.619233 366.4317 L 185.222039 367.609226 L 186.786224 368.835012 L 188.311786 370.099405 L 189.808382 371.412058 L 191.256701 372.772969 L 192.666398 374.172488 L 194.027818 375.620267 L 195.350616 377.097001 L 196.634792 378.621994 L 197.861035 380.175943 L 199.048657 381.768499 L 200.188001 383.399663 L 201.279068 385.059782 L 202.321857 386.748857 L 203.306714 388.476539 L 204.243294 390.223525 L 205.131596 391.999466 L 205.961966 393.804363 M 246.881802 658.979454 L 246.84318 657.087691 L 246.756281 655.195927 L 246.611449 653.313815 L 246.399029 651.431703 L 246.128676 649.559243 L 245.810046 647.696435 L 245.423827 645.843278 L 244.979676 643.999774 L 244.477592 642.175573 L 243.917576 640.370676 L 243.309282 638.585083 L 242.6334 636.818793 L 241.90924 635.071807 L 241.127148 633.344125 L 240.287123 631.645398 L 239.398821 629.975627 L 238.462241 628.334812 L 237.467729 626.722952 L 236.434595 625.149699 L 235.343528 623.59575 L 234.194528 622.090061 L 233.016562 620.613327 L 231.780663 619.1752 L 230.506143 617.785333 L 229.183345 616.434073 L 227.821925 615.121421 L 226.421884 613.847376 L 224.973565 612.62159 L 223.496279 611.444064 M 440.377204 658.979454 L 440.406171 656.276935 L 440.49307 653.584067 L 440.637902 650.891199 L 440.831011 648.198331 L 441.091708 645.515115 L 441.410338 642.841551 L 441.777246 640.167987 L 442.202086 637.504075 L 442.694514 634.849815 L 443.23522 632.205206 L 443.833859 629.579901 L 444.480774 626.964248 L 445.185623 624.358247 L 445.95806 621.77155 L 446.769118 619.204156 L 447.647765 616.656066 L 448.574689 614.117628 L 449.549891 611.608145 L 450.583025 609.117966 L 451.674092 606.647091 L 452.813436 604.205172 L 454.001057 601.782556 L 455.246611 599.388896 L 456.540443 597.024191 L 457.882552 594.67879 L 459.272938 592.371996 L 460.711601 590.094158 L 462.198542 587.845276 L 463.73376 585.625349 M 205.971621 437.112241 L 205.942655 439.534857 L 205.855755 441.947821 L 205.710924 444.370437 L 205.508159 446.773749 L 205.247462 449.177061 L 204.928831 451.580373 L 204.552268 453.964382 L 204.117773 456.34839 L 203.625344 458.713095 L 203.074983 461.068148 L 202.476345 463.413549 L 201.819774 465.739646 L 201.10527 468.056091 L 200.332833 470.343581 L 199.502463 472.621419 L 198.623817 474.870302 L 197.735514 477.157792 L 196.895489 479.464585 L 196.113397 481.790682 L 195.379582 484.126432 L 194.7037 486.491136 L 194.076095 488.865493 L 193.516079 491.249501 L 193.004339 493.652813 L 192.550533 496.065777 L 192.154659 498.478741 L 191.807062 500.911009 L 191.527054 503.352929 L 191.295323 505.794848 M 419.077261 336.520598 L 419.106228 335.092123 L 419.193127 333.673301 L 419.337959 332.254478 L 419.540723 330.835655 L 419.791765 329.436136 L 420.110395 328.046269 L 420.477303 326.666053 L 420.902143 325.305142 L 421.384916 323.953882 L 421.915966 322.631577 L 422.495294 321.328577 L 423.132554 320.054532 L 423.827747 318.809442 L 424.561562 317.583657 L 425.35331 316.396478 L 426.183679 315.238256 L 427.062326 314.11864 L 427.98925 313.027981 L 428.954796 311.975928 L 429.968619 310.972135 L 431.011409 309.997298 L 432.102476 309.080372 L 433.222509 308.192401 L 434.381164 307.362341 L 435.568786 306.580541 L 436.795029 305.837348 L 438.040583 305.152066 L 439.324759 304.515044 L 440.618591 303.926281 L 441.951044 303.395428 L 443.293153 302.912836 L 444.654573 302.488154 L 446.035303 302.121383 L 447.42569 301.802872 L 448.825731 301.551924 L 450.235428 301.349235 L 451.654781 301.204457 L 453.083789 301.11759 L 454.512797 301.088635 L 455.941805 301.11759 L 457.361157 301.204457 L 458.78051 301.349235 L 460.199862 301.551924 L 461.599904 301.802872 L 462.99029 302.121383 L 464.37102 302.488154 L 465.73244 302.912836 L 467.074549 303.395428 L 468.397347 303.926281 L 469.700834 304.515044 L 470.975355 305.152066 L 472.230564 305.837348 L 473.447152 306.580541 L 474.634774 307.362341 L 475.793429 308.192401 L 476.923117 309.080372 L 478.004529 309.997298 L 479.056974 310.972135 L 480.061142 311.975928 L 481.036343 313.027981 L 481.953612 314.11864 L 482.832258 315.238256 L 483.672283 316.396478 L 484.454376 317.583657 L 485.197846 318.809442 L 485.883384 320.054532 L 486.520644 321.328577 L 487.109627 322.631577 L 487.640677 323.953882 L 488.12345 325.305142 L 488.54829 326.666053 L 488.915198 328.046269 L 489.224172 329.436136 L 489.48487 330.835655 L 489.687634 332.254478 L 489.832466 333.673301 L 489.919366 335.092123 L 489.948332 336.520598 " stroke="#000000" stroke-width="10" stroke-opacity="1" stroke-miterlimit="4"/></g><g clip-path="url(#960cd4a448)"><path fill="#ffffff" d="M 699.375 405.347656 L 699.375 426.976562 L 727.078125 448.515625 L 699.375 469.96875 L 699.375 491.597656 L 754.871094 448.425781 Z M 752.136719 405.347656 L 752.136719 426.976562 L 779.84375 448.515625 L 752.136719 469.96875 L 752.136719 491.597656 L 807.636719 448.425781 Z M 804.898438 405.347656 L 804.898438 426.976562 L 832.605469 448.515625 L 804.898438 469.96875 L 804.898438 491.597656 L 860.398438 448.425781 Z M 804.898438 405.347656 " fill-opacity="1" fill-rule="nonzero"/></g><g fill="#ffffff" fill-opacity="1"><g transform="translate(516.052755, 478.399133)"><g><path d="M 62.265625 0 L 3.390625 0 L 3.390625 -14.421875 L 23.203125 -34.46875 C 28.859375 -40.382812 32.554688 -44.421875 34.296875 -46.578125 C 36.035156 -48.742188 37.242188 -50.601562 37.921875 -52.15625 C 38.609375 -53.71875 38.953125 -55.347656 38.953125 -57.046875 C 38.953125 -59.160156 38.269531 -60.828125 36.90625 -62.046875 C 35.539062 -63.265625 33.617188 -63.875 31.140625 -63.875 C 28.578125 -63.875 25.992188 -63.140625 23.390625 -61.671875 C 20.785156 -60.210938 17.835938 -58.0625 14.546875 -55.21875 L 2.5 -69.3125 C 6.675781 -73.050781 10.1875 -75.722656 13.03125 -77.328125 C 15.882812 -78.941406 18.984375 -80.171875 22.328125 -81.015625 C 25.679688 -81.867188 29.445312 -82.296875 33.625 -82.296875 C 38.882812 -82.296875 43.578125 -81.367188 47.703125 -79.515625 C 51.828125 -77.671875 55.023438 -75.035156 57.296875 -71.609375 C 59.578125 -68.191406 60.71875 -64.359375 60.71875 -60.109375 C 60.71875 -56.921875 60.316406 -53.976562 59.515625 -51.28125 C 58.722656 -48.582031 57.492188 -45.925781 55.828125 -43.3125 C 54.160156 -40.707031 51.945312 -37.960938 49.1875 -35.078125 C 46.4375 -32.191406 40.566406 -26.710938 31.578125 -18.640625 L 31.578125 -18.09375 L 62.265625 -18.09375 Z M 62.265625 0 "/></g></g></g></svg>