<svg xmlns="http://www.w3.org/2000/svg" xmlns:xlink="http://www.w3.org/1999/xlink" width="1920" zoomAndPan="magnify" viewBox="0 0 1440 809.999993" height="1080" preserveAspectRatio="xMidYMid meet" version="1.0"><defs><clipPath id="ed832b9bdd"><path d="M 894.410156 263.683594 L 1103.660156 263.683594 L 1103.660156 546.433594 L 894.410156 546.433594 Z M 894.410156 263.683594 " clip-rule="nonzero"/></clipPath><clipPath id="1b33c290c3"><path d="M 909.867188 448.066406 L 1069.617188 448.066406 L 1069.617188 673.816406 L 909.867188 673.816406 Z M 909.867188 448.066406 " clip-rule="nonzero"/></clipPath><clipPath id="ca6b61dcb7"><path d="M 699 405.347656 L 860.886719 405.347656 L 860.886719 491.597656 L 699 491.597656 Z M 699 405.347656 " clip-rule="nonzero"/></clipPath><clipPath id="3ab85b1641"><path d="M 239 263.683594 L 595 263.683594 L 595 589 L 239 589 Z M 239 263.683594 " clip-rule="nonzero"/></clipPath><clipPath id="64a2323f6d"><path d="M 293 348 L 650 348 L 650 673.933594 L 293 673.933594 Z M 293 348 " clip-rule="nonzero"/></clipPath><clipPath id="8c9548f440"><path d="M 355.242188 350.746094 L 525.492188 350.746094 L 525.492188 582.496094 L 355.242188 582.496094 Z M 355.242188 350.746094 " clip-rule="nonzero"/></clipPath></defs><rect x="-144" width="1728" fill="#ffffff" y="-80.999999" height="971.999992" fill-opacity="1"/><rect x="-144" width="1728" fill="#b31166" y="-80.999999" height="971.999992" fill-opacity="1"/><g clip-path="url(#ed832b9bdd)"><path fill="#ffffff" d="M 955.859375 343.378906 L 1042.1875 343.378906 C 1049.605469 343.378906 1055.648438 337.339844 1055.648438 329.914062 L 1055.648438 299.519531 C 1055.648438 292.09375 1049.605469 286.058594 1042.1875 286.058594 L 1027.277344 286.058594 C 1024.246094 273.265625 1012.730469 263.71875 999.023438 263.71875 C 985.316406 263.71875 973.800781 273.265625 970.769531 286.058594 L 955.859375 286.058594 C 948.4375 286.058594 942.398438 292.09375 942.398438 299.519531 L 942.398438 329.914062 C 942.398438 337.339844 948.4375 343.378906 955.859375 343.378906 Z M 956.535156 300.191406 L 977.09375 300.191406 C 978.988281 300.191406 980.804688 299.429688 982.136719 298.074219 C 983.464844 296.722656 984.191406 294.890625 984.160156 292.996094 C 984.15625 292.847656 984.144531 292.648438 984.125 292.453125 C 984.289062 284.375 990.910156 277.851562 999.023438 277.851562 C 1007.132812 277.851562 1013.753906 284.371094 1013.917969 292.445312 C 1013.898438 292.6875 1013.882812 292.933594 1013.882812 293.125 C 1013.882812 297.027344 1017.050781 300.191406 1020.953125 300.191406 L 1041.515625 300.191406 L 1041.515625 329.242188 L 956.535156 329.242188 Z M 966.628906 374.730469 L 1059.390625 374.730469 C 1063.292969 374.730469 1066.457031 377.894531 1066.457031 381.796875 C 1066.457031 385.703125 1063.292969 388.863281 1059.390625 388.863281 L 966.628906 388.863281 C 962.726562 388.863281 959.5625 385.703125 959.5625 381.796875 C 959.5625 377.894531 962.726562 374.730469 966.628906 374.730469 Z M 931.589844 432.445312 C 931.589844 428.539062 934.75 425.378906 938.65625 425.378906 L 1059.390625 425.378906 C 1063.292969 425.378906 1066.457031 428.539062 1066.457031 432.445312 C 1066.457031 436.347656 1063.292969 439.511719 1059.390625 439.511719 L 938.65625 439.511719 C 934.75 439.511719 931.589844 436.347656 931.589844 432.445312 Z M 1020.222656 476.023438 C 1024.125 476.023438 1027.292969 479.191406 1027.292969 483.089844 C 1027.292969 486.992188 1024.125 490.15625 1020.222656 490.15625 L 938.65625 490.15625 C 934.75 490.15625 931.589844 486.992188 931.589844 483.089844 C 931.589844 479.191406 934.75 476.023438 938.65625 476.023438 Z M 1103.632812 314.714844 L 1103.632812 539.332031 C 1103.632812 543.234375 1100.46875 546.398438 1096.566406 546.398438 L 901.476562 546.398438 C 897.574219 546.398438 894.410156 543.234375 894.410156 539.332031 L 894.410156 314.714844 C 894.410156 310.8125 897.574219 307.648438 901.476562 307.648438 L 932.976562 307.648438 L 932.976562 321.78125 L 908.546875 321.78125 L 908.546875 532.265625 L 1089.5 532.265625 L 1089.5 321.78125 L 1065.070312 321.78125 L 1065.070312 307.648438 L 1096.566406 307.648438 C 1100.46875 307.648438 1103.632812 310.8125 1103.632812 314.714844 Z M 1103.632812 314.714844 " fill-opacity="1" fill-rule="nonzero"/></g><path fill="#ffd4aa" d="M 969.199219 671.8125 L 1047.480469 671.8125 L 1047.480469 657.304688 L 1047.492188 656.214844 L 1047.527344 655.121094 L 1047.585938 654.03125 L 1047.667969 652.945312 L 1047.769531 651.855469 L 1047.898438 650.773438 L 1048.046875 649.691406 L 1048.222656 648.613281 L 1048.417969 647.539062 L 1048.636719 646.472656 L 1048.878906 645.40625 L 1049.144531 644.347656 L 1049.429688 643.292969 L 1049.738281 642.246094 L 1050.070312 641.207031 L 1050.421875 640.175781 L 1050.796875 639.148438 L 1051.195312 638.132812 L 1051.613281 637.125 L 1052.050781 636.125 L 1052.511719 635.136719 L 1052.996094 634.15625 L 1053.496094 633.1875 L 1054.019531 632.230469 L 1054.5625 631.285156 L 1055.125 630.347656 L 1055.710938 629.425781 L 1056.3125 628.515625 L 1056.933594 627.617188 L 1057.605469 626.644531 L 1058.261719 625.660156 L 1058.894531 624.660156 L 1059.507812 623.648438 L 1060.101562 622.625 L 1060.671875 621.585938 L 1061.222656 620.539062 L 1061.75 619.480469 L 1062.253906 618.410156 L 1062.738281 617.332031 L 1063.199219 616.242188 L 1063.640625 615.140625 L 1064.054688 614.035156 L 1064.449219 612.917969 L 1064.820312 611.792969 L 1065.167969 610.664062 L 1065.492188 609.523438 L 1065.792969 608.378906 L 1066.070312 607.230469 L 1066.324219 606.074219 L 1066.554688 604.914062 L 1066.757812 603.746094 L 1066.941406 602.578125 L 1067.097656 601.40625 L 1067.230469 600.230469 L 1067.339844 599.050781 L 1067.425781 597.871094 L 1067.484375 596.6875 L 1067.523438 595.503906 L 1067.535156 594.320312 L 1067.535156 526.800781 L 1067.523438 526.222656 L 1067.488281 525.644531 L 1067.429688 525.070312 L 1067.347656 524.5 L 1067.246094 523.929688 L 1067.117188 523.367188 L 1066.96875 522.808594 L 1066.796875 522.257812 L 1066.605469 521.714844 L 1066.386719 521.179688 L 1066.152344 520.652344 L 1065.894531 520.136719 L 1065.613281 519.628906 L 1065.316406 519.136719 L 1064.996094 518.652344 L 1064.660156 518.183594 L 1064.304688 517.730469 L 1063.929688 517.289062 L 1063.539062 516.867188 L 1063.128906 516.457031 L 1062.707031 516.066406 L 1062.265625 515.691406 L 1061.8125 515.335938 L 1061.34375 514.996094 L 1060.859375 514.679688 L 1060.367188 514.378906 L 1059.863281 514.101562 L 1059.34375 513.84375 L 1058.820312 513.605469 L 1058.28125 513.390625 L 1057.738281 513.195312 L 1057.1875 513.023438 L 1056.628906 512.875 L 1056.066406 512.75 L 1055.5 512.644531 L 1054.925781 512.5625 L 1054.351562 512.503906 L 1053.777344 512.472656 L 1053.199219 512.460938 L 1052.621094 512.472656 L 1052.046875 512.503906 L 1051.472656 512.5625 L 1050.902344 512.644531 L 1050.332031 512.75 L 1049.769531 512.875 L 1049.210938 513.023438 L 1048.660156 513.195312 L 1048.117188 513.390625 L 1047.582031 513.605469 L 1047.054688 513.84375 L 1046.539062 514.101562 L 1046.03125 514.378906 L 1045.539062 514.679688 L 1045.058594 514.996094 L 1044.589844 515.335938 L 1044.132812 515.691406 L 1043.695312 516.066406 L 1043.269531 516.457031 L 1042.863281 516.867188 L 1042.46875 517.289062 L 1042.097656 517.730469 L 1041.738281 518.183594 L 1041.402344 518.652344 L 1041.085938 519.136719 L 1040.785156 519.628906 L 1040.507812 520.136719 L 1040.25 520.652344 L 1040.011719 521.179688 L 1039.796875 521.714844 L 1039.601562 522.257812 L 1039.429688 522.808594 L 1039.28125 523.367188 L 1039.15625 523.929688 L 1039.050781 524.5 L 1038.96875 525.070312 L 1038.910156 525.644531 L 1038.875 526.222656 L 1038.863281 526.800781 L 1038.863281 514.535156 L 1038.851562 513.957031 L 1038.816406 513.378906 L 1038.761719 512.800781 L 1038.679688 512.226562 L 1038.574219 511.65625 L 1038.445312 511.09375 L 1038.296875 510.53125 L 1038.125 509.980469 L 1037.929688 509.433594 L 1037.714844 508.894531 L 1037.476562 508.367188 L 1037.21875 507.847656 L 1036.9375 507.339844 L 1036.636719 506.84375 L 1036.320312 506.359375 L 1035.980469 505.890625 L 1035.621094 505.433594 L 1035.246094 504.992188 L 1034.855469 504.566406 L 1034.445312 504.15625 L 1034.019531 503.765625 L 1033.578125 503.386719 L 1033.121094 503.03125 L 1032.652344 502.691406 L 1032.167969 502.371094 L 1031.671875 502.074219 L 1031.164062 501.792969 L 1030.644531 501.535156 L 1030.117188 501.296875 L 1029.578125 501.078125 L 1029.035156 500.886719 L 1028.480469 500.710938 L 1027.921875 500.5625 L 1027.355469 500.433594 L 1026.785156 500.332031 L 1026.210938 500.25 L 1025.636719 500.191406 L 1025.058594 500.15625 L 1024.476562 500.144531 L 1023.898438 500.15625 L 1023.320312 500.191406 L 1022.742188 500.25 L 1022.171875 500.332031 L 1021.601562 500.433594 L 1021.035156 500.5625 L 1020.476562 500.710938 L 1019.921875 500.886719 L 1019.375 501.078125 L 1018.839844 501.296875 L 1018.308594 501.535156 L 1017.792969 501.792969 L 1017.285156 502.074219 L 1016.789062 502.371094 L 1016.304688 502.691406 L 1015.835938 503.03125 L 1015.378906 503.386719 L 1014.9375 503.765625 L 1014.511719 504.15625 L 1014.101562 504.566406 L 1013.707031 504.992188 L 1013.332031 505.433594 L 1012.976562 505.890625 L 1012.636719 506.359375 L 1012.316406 506.84375 L 1012.019531 507.339844 L 1011.738281 507.847656 L 1011.480469 508.367188 L 1011.242188 508.894531 L 1011.023438 509.433594 L 1010.832031 509.980469 L 1010.660156 510.53125 L 1010.507812 511.09375 L 1010.382812 511.65625 L 1010.277344 512.226562 L 1010.195312 512.800781 L 1010.136719 513.378906 L 1010.101562 513.957031 L 1010.089844 514.535156 L 1010.089844 509.046875 L 1010.078125 508.46875 L 1010.042969 507.890625 L 1009.984375 507.3125 L 1009.90625 506.738281 L 1009.800781 506.167969 L 1009.671875 505.605469 L 1009.523438 505.042969 L 1009.351562 504.492188 L 1009.15625 503.945312 L 1008.9375 503.40625 L 1008.703125 502.878906 L 1008.441406 502.359375 L 1008.164062 501.851562 L 1007.863281 501.355469 L 1007.542969 500.871094 L 1007.207031 500.402344 L 1006.847656 499.945312 L 1006.472656 499.503906 L 1006.078125 499.078125 L 1005.667969 498.667969 L 1005.246094 498.277344 L 1004.804688 497.898438 L 1004.347656 497.542969 L 1003.875 497.203125 L 1003.394531 496.882812 L 1002.898438 496.585938 L 1002.390625 496.304688 L 1001.871094 496.046875 L 1001.34375 495.808594 L 1000.804688 495.589844 L 1000.257812 495.394531 L 999.707031 495.222656 L 999.148438 495.074219 L 998.582031 494.945312 L 998.011719 494.84375 L 997.4375 494.761719 L 996.859375 494.703125 L 996.28125 494.667969 L 995.703125 494.65625 L 995.125 494.667969 L 994.546875 494.703125 L 993.96875 494.761719 L 993.394531 494.84375 L 992.824219 494.945312 L 992.261719 495.074219 L 991.703125 495.222656 L 991.148438 495.394531 L 990.601562 495.589844 L 990.066406 495.808594 L 989.535156 496.046875 L 989.019531 496.304688 L 988.511719 496.585938 L 988.015625 496.882812 L 987.53125 497.203125 L 987.0625 497.542969 L 986.605469 497.898438 L 986.164062 498.277344 L 985.738281 498.667969 L 985.328125 499.078125 L 984.933594 499.503906 L 984.558594 499.945312 L 984.203125 500.402344 L 983.863281 500.871094 L 983.542969 501.355469 L 983.246094 501.851562 L 982.964844 502.359375 L 982.707031 502.878906 L 982.46875 503.40625 L 982.25 503.945312 L 982.058594 504.492188 L 981.886719 505.042969 L 981.734375 505.605469 L 981.609375 506.167969 L 981.503906 506.738281 L 981.421875 507.3125 L 981.363281 507.890625 L 981.328125 508.46875 L 981.316406 509.046875 L 981.316406 464.453125 L 981.304688 463.875 L 981.269531 463.296875 L 981.210938 462.722656 L 981.132812 462.152344 L 981.027344 461.585938 L 980.898438 461.019531 L 980.75 460.464844 L 980.578125 459.910156 L 980.386719 459.367188 L 980.167969 458.832031 L 979.933594 458.304688 L 979.675781 457.789062 L 979.394531 457.28125 L 979.097656 456.789062 L 978.777344 456.304688 L 978.441406 455.835938 L 978.085938 455.382812 L 977.710938 454.945312 L 977.320312 454.519531 L 976.914062 454.109375 L 976.488281 453.71875 L 976.046875 453.34375 L 975.59375 452.988281 L 975.125 452.652344 L 974.644531 452.332031 L 974.148438 452.035156 L 973.644531 451.753906 L 973.128906 451.496094 L 972.601562 451.261719 L 972.066406 451.042969 L 971.519531 450.851562 L 970.96875 450.679688 L 970.414062 450.527344 L 969.847656 450.402344 L 969.28125 450.296875 L 968.710938 450.21875 L 968.136719 450.160156 L 967.558594 450.125 L 966.980469 450.113281 L 966.40625 450.125 L 965.828125 450.160156 L 965.253906 450.21875 L 964.683594 450.296875 L 964.113281 450.402344 L 963.550781 450.527344 L 962.992188 450.679688 L 962.441406 450.851562 L 961.898438 451.042969 L 961.363281 451.261719 L 960.835938 451.496094 L 960.320312 451.753906 L 959.8125 452.035156 L 959.320312 452.332031 L 958.839844 452.652344 L 958.371094 452.988281 L 957.914062 453.34375 L 957.476562 453.71875 L 957.050781 454.109375 L 956.644531 454.519531 L 956.253906 454.945312 L 955.878906 455.382812 L 955.523438 455.835938 L 955.183594 456.304688 L 954.867188 456.789062 L 954.566406 457.28125 L 954.289062 457.789062 L 954.03125 458.304688 L 953.792969 458.832031 L 953.578125 459.367188 L 953.382812 459.910156 L 953.210938 460.464844 L 953.0625 461.019531 L 952.9375 461.585938 L 952.832031 462.152344 L 952.75 462.722656 L 952.691406 463.296875 L 952.660156 463.875 L 952.648438 464.453125 L 952.648438 549.988281 L 952.308594 549.257812 L 951.953125 548.539062 L 951.574219 547.832031 L 951.171875 547.132812 L 950.75 546.449219 L 950.3125 545.777344 L 949.851562 545.117188 L 949.371094 544.472656 L 948.871094 543.84375 L 948.355469 543.226562 L 947.820312 542.625 L 947.265625 542.042969 L 946.695312 541.476562 L 946.109375 540.925781 L 945.507812 540.394531 L 944.890625 539.878906 L 944.253906 539.382812 L 943.609375 538.910156 L 942.945312 538.453125 L 942.273438 538.015625 L 941.585938 537.597656 L 940.886719 537.199219 L 940.175781 536.824219 L 939.453125 536.472656 L 938.722656 536.136719 L 937.980469 535.828125 L 937.230469 535.539062 L 936.472656 535.273438 L 935.707031 535.027344 L 934.933594 534.808594 L 934.15625 534.609375 L 933.371094 534.433594 L 932.582031 534.285156 L 931.789062 534.15625 L 930.992188 534.050781 L 930.191406 533.972656 L 929.390625 533.914062 L 928.585938 533.882812 L 927.78125 533.871094 L 926.980469 533.886719 L 926.175781 533.925781 L 925.375 533.988281 L 924.574219 534.074219 L 924.003906 534.15625 L 923.441406 534.261719 L 922.878906 534.386719 L 922.324219 534.535156 L 921.773438 534.707031 L 921.230469 534.902344 L 920.695312 535.117188 L 920.171875 535.351562 L 919.65625 535.609375 L 919.152344 535.886719 L 918.660156 536.183594 L 918.179688 536.5 L 917.710938 536.835938 L 917.257812 537.191406 L 916.816406 537.5625 L 916.394531 537.953125 L 915.984375 538.355469 L 915.59375 538.777344 L 915.21875 539.214844 L 914.863281 539.667969 L 914.523438 540.132812 L 914.203125 540.613281 L 913.902344 541.105469 L 913.625 541.609375 L 913.363281 542.121094 L 913.125 542.644531 L 912.90625 543.179688 L 912.710938 543.71875 L 912.535156 544.269531 L 912.382812 544.824219 L 912.253906 545.382812 L 912.144531 545.949219 L 912.058594 546.519531 L 911.996094 547.089844 L 911.957031 547.664062 L 911.941406 548.242188 L 911.949219 548.816406 L 911.980469 549.390625 L 912.03125 549.964844 L 912.109375 550.535156 L 912.207031 551.105469 L 912.328125 551.667969 L 912.46875 552.226562 L 912.636719 552.777344 L 912.824219 553.320312 L 913.03125 553.855469 L 913.261719 554.382812 L 913.515625 554.902344 L 913.785156 555.410156 L 914.078125 555.90625 L 914.390625 556.390625 L 914.71875 556.863281 L 915.070312 557.320312 L 915.4375 557.761719 L 915.820312 558.191406 L 916.222656 558.605469 L 916.640625 559 L 917.074219 559.378906 L 917.523438 559.742188 L 917.984375 560.085938 L 918.460938 560.410156 L 918.949219 560.714844 L 919.449219 561 L 919.957031 561.265625 L 920.480469 561.507812 L 921.011719 561.734375 L 921.550781 561.933594 L 922.160156 562.164062 L 922.761719 562.414062 L 923.351562 562.6875 L 923.933594 562.980469 L 924.5 563.296875 L 925.058594 563.632812 L 925.601562 563.992188 L 926.132812 564.367188 L 926.648438 564.765625 L 927.148438 565.183594 L 927.632812 565.617188 L 928.101562 566.070312 L 928.550781 566.539062 L 928.984375 567.023438 L 929.398438 567.527344 L 929.796875 568.042969 L 930.171875 568.574219 L 930.527344 569.121094 L 930.863281 569.675781 L 931.179688 570.246094 L 931.46875 570.828125 L 931.742188 571.421875 L 931.992188 572.023438 L 932.214844 572.632812 L 932.417969 573.253906 L 932.597656 573.878906 L 932.757812 574.511719 L 932.890625 575.148438 L 932.996094 575.789062 L 933.082031 576.4375 L 933.144531 577.082031 L 933.179688 577.734375 L 933.191406 578.386719 L 933.191406 584.078125 L 933.203125 585.351562 L 933.238281 586.621094 L 933.296875 587.894531 L 933.382812 589.160156 L 933.488281 590.429688 L 933.617188 591.695312 L 933.773438 592.957031 L 933.949219 594.214844 L 934.148438 595.472656 L 934.375 596.722656 L 934.621094 597.972656 L 934.890625 599.214844 L 935.1875 600.449219 L 935.503906 601.683594 L 935.84375 602.90625 L 936.207031 604.128906 L 936.589844 605.339844 L 937 606.542969 L 937.429688 607.742188 L 937.882812 608.929688 L 938.355469 610.109375 L 938.851562 611.277344 L 939.371094 612.441406 L 939.910156 613.59375 L 940.472656 614.734375 L 941.054688 615.863281 L 941.65625 616.984375 L 942.28125 618.089844 L 942.925781 619.1875 L 943.589844 620.269531 L 944.277344 621.34375 L 944.980469 622.402344 L 945.703125 623.445312 L 946.449219 624.476562 L 947.210938 625.496094 L 947.992188 626.496094 L 948.792969 627.484375 L 949.613281 628.457031 L 950.449219 629.414062 L 951.304688 630.355469 L 952.175781 631.28125 L 953.066406 632.191406 L 953.96875 633.085938 L 954.890625 633.960938 L 955.832031 634.816406 L 956.785156 635.660156 L 957.753906 636.480469 L 958.738281 637.285156 L 959.738281 638.070312 L 960.339844 638.546875 L 960.921875 639.042969 L 961.488281 639.554688 L 962.039062 640.085938 L 962.574219 640.636719 L 963.089844 641.199219 L 963.589844 641.78125 L 964.070312 642.378906 L 964.53125 642.988281 L 964.972656 643.613281 L 965.394531 644.253906 L 965.792969 644.90625 L 966.175781 645.570312 L 966.535156 646.246094 L 966.871094 646.933594 L 967.1875 647.628906 L 967.480469 648.335938 L 967.753906 649.054688 L 968.003906 649.777344 L 968.226562 650.507812 L 968.429688 651.246094 L 968.609375 651.992188 L 968.765625 652.742188 L 968.898438 653.496094 L 969.007812 654.253906 L 969.089844 655.011719 L 969.152344 655.777344 L 969.1875 656.542969 L 969.199219 657.308594 L 969.199219 671.816406 Z M 969.199219 671.8125 " fill-opacity="1" fill-rule="nonzero"/><path fill="#ffd4aa" d="M 1056.933594 627.617188 L 1057.605469 626.644531 L 1058.261719 625.65625 L 1058.894531 624.65625 L 1059.507812 623.644531 L 1060.097656 622.621094 L 1060.671875 621.585938 L 1061.21875 620.535156 L 1061.746094 619.476562 L 1062.253906 618.40625 L 1062.738281 617.328125 L 1063.199219 616.238281 L 1063.636719 615.140625 L 1064.054688 614.03125 L 1064.449219 612.914062 L 1064.820312 611.792969 L 1065.167969 610.660156 L 1065.492188 609.523438 L 1065.792969 608.378906 L 1066.070312 607.226562 L 1066.320312 606.070312 L 1066.550781 604.910156 L 1066.757812 603.746094 L 1066.9375 602.574219 L 1067.097656 601.402344 L 1067.230469 600.226562 L 1067.339844 599.046875 L 1067.425781 597.867188 L 1067.484375 596.6875 L 1067.523438 595.503906 L 1067.535156 594.320312 M 952.644531 464.449219 L 952.644531 567.511719 M 981.316406 464.449219 L 981.316406 553.835938 M 1067.53125 526.796875 L 1067.53125 594.320312 M 1038.863281 514.535156 L 1038.863281 553.835938 M 1010.089844 509.046875 L 1010.089844 553.835938 M 933.1875 584.074219 L 933.1875 578.378906 M 969.195312 657.304688 L 969.195312 671.8125 M 1047.480469 657.304688 L 1047.480469 671.8125 M 981.316406 464.449219 L 981.304688 463.871094 L 981.269531 463.296875 L 981.210938 462.71875 L 981.132812 462.148438 L 981.027344 461.582031 L 980.898438 461.015625 L 980.75 460.460938 L 980.578125 459.90625 L 980.386719 459.363281 L 980.167969 458.828125 L 979.933594 458.300781 L 979.675781 457.785156 L 979.394531 457.277344 L 979.097656 456.785156 L 978.777344 456.304688 L 978.441406 455.835938 L 978.085938 455.378906 L 977.710938 454.941406 L 977.320312 454.515625 L 976.910156 454.105469 L 976.488281 453.714844 L 976.046875 453.339844 L 975.59375 452.984375 L 975.125 452.648438 L 974.644531 452.328125 L 974.148438 452.03125 L 973.644531 451.75 L 973.125 451.492188 L 972.601562 451.257812 L 972.066406 451.039062 L 971.519531 450.847656 L 970.96875 450.675781 L 970.414062 450.527344 L 969.847656 450.398438 L 969.28125 450.292969 L 968.710938 450.214844 L 968.136719 450.15625 L 967.558594 450.121094 L 966.980469 450.109375 L 966.40625 450.121094 L 965.828125 450.15625 L 965.253906 450.214844 L 964.683594 450.292969 L 964.113281 450.398438 L 963.550781 450.527344 L 962.992188 450.675781 L 962.441406 450.847656 L 961.898438 451.039062 L 961.363281 451.257812 L 960.835938 451.492188 L 960.320312 451.75 L 959.8125 452.03125 L 959.320312 452.328125 L 958.839844 452.648438 L 958.371094 452.984375 L 957.914062 453.339844 L 957.476562 453.714844 L 957.050781 454.105469 L 956.644531 454.515625 L 956.253906 454.941406 L 955.878906 455.378906 L 955.523438 455.835938 L 955.183594 456.304688 L 954.867188 456.785156 L 954.566406 457.277344 L 954.289062 457.785156 L 954.03125 458.300781 L 953.792969 458.828125 L 953.578125 459.363281 L 953.382812 459.90625 L 953.210938 460.460938 L 953.0625 461.015625 L 952.9375 461.582031 L 952.832031 462.148438 L 952.75 462.71875 L 952.691406 463.296875 L 952.660156 463.871094 L 952.648438 464.449219 M 959.738281 638.0625 L 958.738281 637.277344 L 957.753906 636.472656 L 956.785156 635.652344 L 955.832031 634.8125 L 954.890625 633.953125 L 953.96875 633.078125 L 953.0625 632.1875 L 952.175781 631.277344 L 951.304688 630.351562 L 950.449219 629.410156 L 949.613281 628.453125 L 948.792969 627.476562 L 947.992188 626.492188 L 947.210938 625.488281 L 946.449219 624.46875 L 945.703125 623.4375 L 944.980469 622.394531 L 944.273438 621.335938 L 943.589844 620.265625 L 942.925781 619.179688 L 942.28125 618.085938 L 941.65625 616.976562 L 941.054688 615.855469 L 940.472656 614.726562 L 939.910156 613.585938 L 939.371094 612.433594 L 938.851562 611.273438 L 938.355469 610.101562 L 937.878906 608.921875 L 937.429688 607.734375 L 937 606.535156 L 936.589844 605.332031 L 936.207031 604.121094 L 935.84375 602.902344 L 935.503906 601.675781 L 935.1875 600.445312 L 934.890625 599.207031 L 934.621094 597.964844 L 934.375 596.714844 L 934.148438 595.464844 L 933.949219 594.210938 L 933.773438 592.949219 L 933.617188 591.6875 L 933.488281 590.421875 L 933.382812 589.15625 L 933.296875 587.886719 L 933.238281 586.617188 L 933.203125 585.34375 L 933.191406 584.074219 M 924.574219 534.066406 L 924.003906 534.148438 L 923.4375 534.25 L 922.878906 534.378906 L 922.320312 534.527344 L 921.773438 534.699219 L 921.230469 534.890625 L 920.695312 535.109375 L 920.171875 535.34375 L 919.65625 535.601562 L 919.152344 535.878906 L 918.660156 536.175781 L 918.175781 536.492188 L 917.710938 536.828125 L 917.257812 537.179688 L 916.816406 537.554688 L 916.390625 537.941406 L 915.984375 538.347656 L 915.59375 538.769531 L 915.21875 539.207031 L 914.863281 539.660156 L 914.523438 540.125 L 914.203125 540.605469 L 913.902344 541.09375 L 913.625 541.597656 L 913.363281 542.113281 L 913.125 542.636719 L 912.90625 543.167969 L 912.710938 543.710938 L 912.535156 544.257812 L 912.382812 544.816406 L 912.253906 545.375 L 912.144531 545.941406 L 912.058594 546.511719 L 911.996094 547.082031 L 911.957031 547.65625 L 911.941406 548.234375 L 911.949219 548.808594 L 911.976562 549.382812 L 912.03125 549.957031 L 912.105469 550.527344 L 912.207031 551.09375 L 912.328125 551.660156 L 912.46875 552.214844 L 912.636719 552.765625 L 912.824219 553.3125 L 913.03125 553.847656 L 913.261719 554.375 L 913.515625 554.894531 L 913.785156 555.402344 L 914.078125 555.898438 L 914.390625 556.382812 L 914.71875 556.855469 L 915.070312 557.3125 L 915.4375 557.753906 L 915.820312 558.183594 L 916.222656 558.59375 L 916.640625 558.992188 L 917.074219 559.371094 L 917.523438 559.730469 L 917.984375 560.074219 L 918.460938 560.398438 L 918.949219 560.707031 L 919.449219 560.992188 L 919.957031 561.257812 L 920.480469 561.5 L 921.011719 561.722656 L 921.550781 561.925781 M 1010.09375 509.042969 L 1010.082031 508.460938 L 1010.046875 507.882812 L 1009.988281 507.308594 L 1009.90625 506.734375 L 1009.800781 506.164062 L 1009.675781 505.597656 L 1009.523438 505.039062 L 1009.351562 504.484375 L 1009.15625 503.9375 L 1008.941406 503.402344 L 1008.703125 502.871094 L 1008.445312 502.355469 L 1008.164062 501.847656 L 1007.863281 501.351562 L 1007.546875 500.867188 L 1007.207031 500.394531 L 1006.847656 499.941406 L 1006.472656 499.5 L 1006.082031 499.070312 L 1005.671875 498.664062 L 1005.246094 498.269531 L 1004.804688 497.894531 L 1004.347656 497.535156 L 1003.878906 497.199219 L 1003.394531 496.878906 L 1002.898438 496.578125 L 1002.390625 496.296875 L 1001.871094 496.039062 L 1001.34375 495.800781 L 1000.808594 495.585938 L 1000.261719 495.390625 L 999.707031 495.21875 L 999.148438 495.066406 L 998.582031 494.941406 L 998.011719 494.835938 L 997.4375 494.753906 L 996.863281 494.695312 L 996.285156 494.660156 L 995.707031 494.648438 L 995.125 494.660156 L 994.546875 494.695312 L 993.972656 494.753906 L 993.398438 494.835938 L 992.828125 494.941406 L 992.261719 495.066406 L 991.703125 495.21875 L 991.148438 495.390625 L 990.605469 495.585938 L 990.066406 495.800781 L 989.539062 496.039062 L 989.019531 496.296875 L 988.511719 496.578125 L 988.015625 496.878906 L 987.53125 497.199219 L 987.0625 497.535156 L 986.605469 497.894531 L 986.164062 498.269531 L 985.738281 498.664062 L 985.328125 499.070312 L 984.9375 499.5 L 984.5625 499.941406 L 984.203125 500.394531 L 983.867188 500.867188 L 983.546875 501.351562 L 983.246094 501.847656 L 982.964844 502.355469 L 982.707031 502.871094 L 982.46875 503.402344 L 982.253906 503.9375 L 982.058594 504.484375 L 981.886719 505.039062 L 981.738281 505.597656 L 981.609375 506.164062 L 981.503906 506.734375 L 981.421875 507.308594 L 981.363281 507.882812 L 981.328125 508.460938 L 981.320312 509.042969 M 1010.09375 514.53125 L 1010.105469 513.953125 L 1010.140625 513.371094 L 1010.199219 512.796875 L 1010.277344 512.222656 L 1010.382812 511.652344 L 1010.511719 511.085938 L 1010.660156 510.527344 L 1010.832031 509.972656 L 1011.027344 509.425781 L 1011.242188 508.890625 L 1011.480469 508.359375 L 1011.742188 507.84375 L 1012.019531 507.335938 L 1012.320312 506.839844 L 1012.640625 506.355469 L 1012.976562 505.882812 L 1013.335938 505.429688 L 1013.710938 504.988281 L 1014.101562 504.5625 L 1014.511719 504.152344 L 1014.9375 503.757812 L 1015.378906 503.382812 L 1015.835938 503.023438 L 1016.308594 502.6875 L 1016.789062 502.367188 L 1017.285156 502.066406 L 1017.792969 501.785156 L 1018.3125 501.527344 L 1018.839844 501.289062 L 1019.378906 501.074219 L 1019.921875 500.878906 L 1020.476562 500.707031 L 1021.035156 500.554688 L 1021.601562 500.429688 L 1022.171875 500.324219 L 1022.746094 500.242188 L 1023.320312 500.183594 L 1023.898438 500.148438 L 1024.480469 500.136719 L 1025.058594 500.148438 L 1025.636719 500.183594 L 1026.214844 500.242188 L 1026.789062 500.324219 L 1027.355469 500.429688 L 1027.921875 500.554688 L 1028.480469 500.707031 L 1029.035156 500.878906 L 1029.582031 501.074219 L 1030.117188 501.289062 L 1030.648438 501.527344 L 1031.164062 501.785156 L 1031.671875 502.066406 L 1032.167969 502.367188 L 1032.652344 502.6875 L 1033.121094 503.023438 L 1033.578125 503.382812 L 1034.019531 503.757812 L 1034.445312 504.152344 L 1034.855469 504.5625 L 1035.25 504.988281 L 1035.625 505.429688 L 1035.980469 505.882812 L 1036.320312 506.355469 L 1036.640625 506.839844 L 1036.9375 507.335938 L 1037.21875 507.84375 L 1037.476562 508.359375 L 1037.714844 508.890625 L 1037.929688 509.425781 L 1038.125 509.972656 L 1038.296875 510.527344 L 1038.449219 511.085938 L 1038.574219 511.652344 L 1038.679688 512.222656 L 1038.761719 512.796875 L 1038.820312 513.371094 L 1038.855469 513.953125 L 1038.867188 514.53125 M 933.195312 578.375 L 933.183594 577.722656 L 933.144531 577.074219 L 933.085938 576.425781 L 933 575.777344 L 932.890625 575.136719 L 932.757812 574.5 L 932.601562 573.867188 L 932.421875 573.242188 L 932.21875 572.625 L 931.992188 572.011719 L 931.746094 571.410156 L 931.472656 570.820312 L 931.179688 570.238281 L 930.867188 569.667969 L 930.53125 569.109375 L 930.175781 568.5625 L 929.796875 568.03125 L 929.402344 567.515625 L 928.988281 567.011719 L 928.554688 566.527344 L 928.105469 566.058594 L 927.636719 565.605469 L 927.152344 565.171875 L 926.652344 564.753906 L 926.132812 564.359375 L 925.605469 563.980469 L 925.058594 563.621094 L 924.503906 563.285156 L 923.933594 562.96875 L 923.355469 562.675781 L 922.761719 562.402344 L 922.160156 562.152344 L 921.550781 561.925781 M 924.578125 534.0625 L 925.378906 533.976562 L 926.179688 533.914062 L 926.980469 533.875 L 927.785156 533.863281 L 928.589844 533.871094 L 929.390625 533.902344 L 930.195312 533.960938 L 930.992188 534.042969 L 931.789062 534.144531 L 932.582031 534.273438 L 933.375 534.425781 L 934.15625 534.597656 L 934.9375 534.796875 L 935.710938 535.019531 L 936.476562 535.261719 L 937.234375 535.527344 L 937.984375 535.816406 L 938.726562 536.128906 L 939.457031 536.460938 L 940.179688 536.816406 L 940.886719 537.191406 L 941.589844 537.585938 L 942.273438 538.003906 L 942.949219 538.441406 L 943.609375 538.898438 L 944.257812 539.375 L 944.890625 539.871094 L 945.507812 540.382812 L 946.113281 540.914062 L 946.699219 541.464844 L 947.269531 542.03125 L 947.820312 542.617188 L 948.355469 543.214844 L 948.875 543.832031 L 949.371094 544.460938 L 949.851562 545.105469 L 950.3125 545.765625 L 950.753906 546.4375 L 951.175781 547.121094 L 951.574219 547.820312 L 951.953125 548.527344 L 952.3125 549.25 L 952.648438 549.976562 M 969.203125 657.296875 L 969.1875 656.53125 L 969.152344 655.765625 L 969.09375 655.003906 L 969.007812 654.242188 L 968.898438 653.484375 L 968.769531 652.730469 L 968.613281 651.980469 L 968.433594 651.234375 L 968.230469 650.496094 L 968.003906 649.765625 L 967.757812 649.042969 L 967.484375 648.328125 L 967.191406 647.621094 L 966.875 646.921875 L 966.535156 646.234375 L 966.175781 645.558594 L 965.796875 644.894531 L 965.394531 644.242188 L 964.976562 643.605469 L 964.535156 642.976562 L 964.070312 642.367188 L 963.59375 641.769531 L 963.09375 641.191406 L 962.578125 640.625 L 962.042969 640.078125 L 961.492188 639.546875 L 960.925781 639.03125 L 960.339844 638.535156 L 959.742188 638.058594 M 1047.484375 657.296875 L 1047.496094 656.203125 L 1047.53125 655.113281 L 1047.589844 654.023438 L 1047.667969 652.9375 L 1047.773438 651.847656 L 1047.902344 650.765625 L 1048.050781 649.683594 L 1048.222656 648.605469 L 1048.421875 647.53125 L 1048.640625 646.464844 L 1048.882812 645.398438 L 1049.144531 644.339844 L 1049.429688 643.285156 L 1049.742188 642.238281 L 1050.070312 641.199219 L 1050.425781 640.167969 L 1050.800781 639.140625 L 1051.195312 638.125 L 1051.613281 637.117188 L 1052.054688 636.117188 L 1052.515625 635.128906 L 1052.996094 634.148438 L 1053.5 633.179688 L 1054.023438 632.222656 L 1054.566406 631.277344 L 1055.128906 630.339844 L 1055.710938 629.417969 L 1056.3125 628.507812 L 1056.933594 627.609375 M 952.652344 567.507812 L 952.640625 568.484375 L 952.605469 569.460938 L 952.546875 570.441406 L 952.464844 571.414062 L 952.359375 572.386719 L 952.230469 573.359375 L 952.078125 574.324219 L 951.902344 575.289062 L 951.703125 576.246094 L 951.480469 577.199219 L 951.238281 578.148438 L 950.972656 579.089844 L 950.683594 580.027344 L 950.371094 580.953125 L 950.035156 581.875 L 949.679688 582.785156 L 949.320312 583.710938 L 948.980469 584.644531 L 948.664062 585.585938 L 948.367188 586.53125 L 948.09375 587.488281 L 947.839844 588.449219 L 947.613281 589.414062 L 947.40625 590.386719 L 947.222656 591.363281 L 947.0625 592.34375 L 946.921875 593.324219 L 946.808594 594.3125 L 946.714844 595.300781 M 1038.867188 526.792969 L 1038.878906 526.214844 L 1038.914062 525.640625 L 1038.972656 525.066406 L 1039.054688 524.492188 L 1039.15625 523.925781 L 1039.285156 523.363281 L 1039.433594 522.804688 L 1039.605469 522.253906 L 1039.800781 521.707031 L 1040.015625 521.171875 L 1040.25 520.648438 L 1040.507812 520.128906 L 1040.789062 519.625 L 1041.085938 519.128906 L 1041.40625 518.648438 L 1041.742188 518.179688 L 1042.097656 517.726562 L 1042.472656 517.285156 L 1042.863281 516.859375 L 1043.273438 516.453125 L 1043.695312 516.058594 L 1044.136719 515.6875 L 1044.589844 515.332031 L 1045.058594 514.992188 L 1045.539062 514.675781 L 1046.035156 514.375 L 1046.539062 514.097656 L 1047.058594 513.839844 L 1047.582031 513.601562 L 1048.121094 513.386719 L 1048.664062 513.191406 L 1049.214844 513.019531 L 1049.773438 512.871094 L 1050.335938 512.742188 L 1050.902344 512.640625 L 1051.472656 512.558594 L 1052.046875 512.5 L 1052.625 512.464844 L 1053.203125 512.453125 L 1053.78125 512.464844 L 1054.355469 512.5 L 1054.929688 512.558594 L 1055.503906 512.640625 L 1056.070312 512.742188 L 1056.632812 512.871094 L 1057.191406 513.019531 L 1057.742188 513.191406 L 1058.285156 513.386719 L 1058.820312 513.601562 L 1059.347656 513.839844 L 1059.863281 514.097656 L 1060.371094 514.375 L 1060.863281 514.675781 L 1061.34375 514.992188 L 1061.8125 515.332031 L 1062.269531 515.6875 L 1062.707031 516.058594 L 1063.132812 516.453125 L 1063.539062 516.859375 L 1063.933594 517.285156 L 1064.304688 517.726562 L 1064.660156 518.179688 L 1065 518.648438 L 1065.316406 519.128906 L 1065.617188 519.625 L 1065.894531 520.128906 L 1066.152344 520.648438 L 1066.390625 521.171875 L 1066.605469 521.707031 L 1066.800781 522.253906 L 1066.972656 522.804688 L 1067.121094 523.363281 L 1067.246094 523.925781 L 1067.351562 524.492188 L 1067.433594 525.066406 L 1067.492188 525.640625 L 1067.527344 526.214844 L 1067.539062 526.792969 " fill-opacity="1" fill-rule="nonzero"/><g clip-path="url(#1b33c290c3)"><path stroke-linecap="round" transform="matrix(0.404564, 0, 0, 0.404715, 869.323666, 390.598301)" fill="none" stroke-linejoin="round" d="M 463.73376 585.644072 L 465.394499 583.240759 L 467.016616 580.79884 L 468.580801 578.327965 L 470.096708 575.828134 L 471.554682 573.299348 L 472.974035 570.741606 L 474.325799 568.145257 L 475.629286 565.529604 L 476.884496 562.884995 L 478.081773 560.221083 L 479.221117 557.528215 L 480.302528 554.816044 L 481.335662 552.074917 L 482.310864 549.314486 L 483.228132 546.544403 L 484.087468 543.745365 L 484.888871 540.936675 L 485.632342 538.108681 L 486.317879 535.261383 L 486.935829 532.404434 L 487.505501 529.537833 L 488.01724 526.66158 L 488.461391 523.766023 L 488.857265 520.870466 L 489.185551 517.965258 L 489.455903 515.050397 L 489.668324 512.135536 L 489.813155 509.220676 L 489.90971 506.296164 L 489.938676 503.371651 M 205.95231 182.476396 L 205.95231 437.130964 M 276.823381 182.476396 L 276.823381 403.339816 M 489.929021 336.529669 L 489.929021 503.371651 M 419.067606 306.232493 L 419.067606 403.339816 M 347.945493 292.671635 L 347.945493 403.339816 M 157.858468 478.054833 L 157.858468 463.982427 M 246.862491 658.998177 L 246.862491 694.84517 M 440.367549 658.998177 L 440.367549 694.84517 M 276.823381 182.476396 L 276.794414 181.047921 L 276.707515 179.629098 L 276.562683 178.200623 L 276.369574 176.791452 L 276.108877 175.391933 L 275.790247 173.992414 L 275.423339 172.621851 L 274.998499 171.251287 L 274.525381 169.909679 L 273.984676 168.587375 L 273.405348 167.284374 L 272.768088 166.010329 L 272.072895 164.755588 L 271.33908 163.539454 L 270.547332 162.352276 L 269.716963 161.194053 L 268.838316 160.064786 L 267.911392 158.983778 L 266.945846 157.931726 L 265.932023 156.918281 L 264.889233 155.953095 L 263.798166 155.026517 L 262.678133 154.148198 L 261.519478 153.318139 L 260.331856 152.526687 L 259.105613 151.793145 L 257.860059 151.098212 L 256.575883 150.461189 L 255.282051 149.882078 L 253.959253 149.341574 L 252.607489 148.868633 L 251.246069 148.443951 L 249.874994 148.077181 L 248.474952 147.75867 L 247.074911 147.49807 L 245.665214 147.305032 L 244.245861 147.160255 L 242.816853 147.073388 L 241.387845 147.044432 L 239.968493 147.073388 L 238.539485 147.160255 L 237.120132 147.305032 L 235.710435 147.49807 L 234.300738 147.75867 L 232.910352 148.077181 L 231.529622 148.443951 L 230.168202 148.868633 L 228.826093 149.341574 L 227.503295 149.882078 L 226.199808 150.461189 L 224.925287 151.098212 L 223.670078 151.793145 L 222.45349 152.526687 L 221.265868 153.318139 L 220.107213 154.148198 L 218.977525 155.026517 L 217.896113 155.953095 L 216.843668 156.918281 L 215.8395 157.931726 L 214.873954 158.983778 L 213.94703 160.064786 L 213.068384 161.194053 L 212.228359 162.352276 L 211.446266 163.539454 L 210.702796 164.755588 L 210.017258 166.010329 L 209.379998 167.284374 L 208.791015 168.587375 L 208.259965 169.909679 L 207.777192 171.251287 L 207.352352 172.621851 L 206.985444 173.992414 L 206.67647 175.391933 L 206.415772 176.791452 L 206.213007 178.200623 L 206.068176 179.629098 L 205.990932 181.047921 L 205.961966 182.476396 M 223.486624 611.453134 L 221.014826 609.513111 L 218.581651 607.524829 L 216.187097 605.497939 L 213.831165 603.42279 L 211.504199 601.299382 L 209.225511 599.137366 L 206.985444 596.936743 L 204.793655 594.687861 L 202.640488 592.400371 L 200.525942 590.074274 L 198.459674 587.709569 L 196.432027 585.296605 L 194.452658 582.864337 L 192.521566 580.38381 L 190.638752 577.864676 L 188.794559 575.316586 L 187.008299 572.73954 L 185.260661 570.123887 L 183.570956 567.479279 L 181.929528 564.796063 L 180.336377 562.093543 L 178.791503 559.352416 L 177.304563 556.582333 L 175.865899 553.792947 L 174.475513 550.974605 L 173.14306 548.127307 L 171.858884 545.260706 L 170.63264 542.365149 L 169.454674 539.450289 L 168.344296 536.516125 L 167.282196 533.553005 L 166.268373 530.580233 L 165.322138 527.588158 L 164.42418 524.576779 L 163.584155 521.546096 L 162.802063 518.505761 L 162.068248 515.446123 L 161.402021 512.376833 L 160.793727 509.288239 L 160.233711 506.199645 L 159.741282 503.101399 L 159.306787 499.98385 L 158.920568 496.8663 L 158.601938 493.739099 L 158.341241 490.611898 L 158.128821 487.475044 L 157.983989 484.338191 L 157.89709 481.191686 L 157.868123 478.054833 M 136.56818 354.491773 L 135.158483 354.694462 L 133.758442 354.94541 L 132.377711 355.263921 L 130.99698 355.630692 L 129.645216 356.055373 L 128.303107 356.528314 L 126.980309 357.068818 L 125.686478 357.64793 L 124.411957 358.284952 L 123.166403 358.970234 L 121.949815 359.703775 L 120.752538 360.485575 L 119.603538 361.315635 L 118.483505 362.184302 L 117.392438 363.11088 L 116.339993 364.066414 L 115.335825 365.070207 L 114.370279 366.112607 L 113.443355 367.193615 L 112.564709 368.313231 L 111.724684 369.461801 L 110.932936 370.64898 L 110.189466 371.855462 L 109.503928 373.100551 L 108.857012 374.374596 L 108.268029 375.667945 L 107.727324 376.980597 L 107.244551 378.322205 L 106.810055 379.673465 L 106.433492 381.05368 L 106.114862 382.433896 L 105.844509 383.833415 L 105.632089 385.242586 L 105.477602 386.651757 L 105.381047 388.07058 L 105.342425 389.499054 L 105.361736 390.917877 L 105.429324 392.3367 L 105.564501 393.755523 L 105.747954 395.164694 L 105.998996 396.564213 L 106.298316 397.963732 L 106.645912 399.334296 L 107.061097 400.695207 L 107.524559 402.046467 L 108.036298 403.368771 L 108.60597 404.671772 L 109.233575 405.955469 L 109.899802 407.21021 L 110.623961 408.435996 L 111.396398 409.632826 L 112.207457 410.800701 L 113.076448 411.929968 L 113.984061 413.020627 L 114.930296 414.082332 L 115.924808 415.095777 L 116.957943 416.080266 L 118.029698 417.016496 L 119.140076 417.904467 L 120.27942 418.75383 L 121.457387 419.554934 L 122.664319 420.317431 L 123.900218 421.022016 L 125.155427 421.678342 L 126.449259 422.276757 L 127.762401 422.826913 L 129.094855 423.32881 M 347.955149 292.661983 L 347.926182 291.223857 L 347.839283 289.795382 L 347.694451 288.376559 L 347.491687 286.957737 L 347.230989 285.548566 L 346.922015 284.149046 L 346.545452 282.768831 L 346.120611 281.398268 L 345.637838 280.047008 L 345.106788 278.724703 L 344.517805 277.412051 L 343.880545 276.138006 L 343.185352 274.883265 L 342.441881 273.657479 L 341.659789 272.460649 L 340.819764 271.292774 L 339.931462 270.173159 L 339.004538 269.082499 L 338.038992 268.020795 L 337.025169 267.017002 L 335.972724 266.042165 L 334.881657 265.115586 L 333.751968 264.227616 L 332.593313 263.397556 L 331.396036 262.606104 L 330.169793 261.862911 L 328.914583 261.167977 L 327.630407 260.530955 L 326.32692 259.942192 L 325.004122 259.41134 L 323.652358 258.928747 L 322.281283 258.504065 L 320.900552 258.127643 L 319.50051 257.818783 L 318.090813 257.558183 L 316.671461 257.355494 L 315.252108 257.210716 L 313.8231 257.12385 L 312.394092 257.094894 L 310.955429 257.12385 L 309.526421 257.210716 L 308.107069 257.355494 L 306.687716 257.558183 L 305.278019 257.818783 L 303.877977 258.127643 L 302.497247 258.504065 L 301.126172 258.928747 L 299.784063 259.41134 L 298.451609 259.942192 L 297.148122 260.530955 L 295.863946 261.167977 L 294.608737 261.862911 L 293.382493 262.606104 L 292.185216 263.397556 L 291.026561 264.227616 L 289.896872 265.115586 L 288.805806 266.042165 L 287.753361 267.017002 L 286.739537 268.020795 L 285.773991 269.082499 L 284.847067 270.173159 L 283.958765 271.292774 L 283.128396 272.460649 L 282.336648 273.657479 L 281.593178 274.883265 L 280.897984 276.138006 L 280.260724 277.412051 L 279.671741 278.724703 L 279.140691 280.047008 L 278.657918 281.398268 L 278.233078 282.768831 L 277.86617 284.149046 L 277.54754 285.548566 L 277.286843 286.957737 L 277.084078 288.376559 L 276.939246 289.795382 L 276.852347 291.223857 L 276.833036 292.661983 M 347.955149 306.222841 L 347.984115 304.794366 L 348.071014 303.35624 L 348.215846 301.937417 L 348.408955 300.518594 L 348.669653 299.109423 L 348.988283 297.709904 L 349.35519 296.329689 L 349.78003 294.959125 L 350.262803 293.607865 L 350.793854 292.285561 L 351.382837 290.972909 L 352.029752 289.698864 L 352.71529 288.444122 L 353.45876 287.218337 L 354.250508 286.021507 L 355.080878 284.853632 L 355.96918 283.734017 L 356.896104 282.643357 L 357.86165 281.591305 L 358.875473 280.57786 L 359.927918 279.603022 L 361.018985 278.676444 L 362.148674 277.788473 L 363.316984 276.958414 L 364.504606 276.166962 L 365.730849 275.423769 L 366.986059 274.728835 L 368.270235 274.091813 L 369.573722 273.503049 L 370.906175 272.972197 L 372.248284 272.489604 L 373.619359 272.064923 L 375.00009 271.6885 L 376.400132 271.379641 L 377.809829 271.119041 L 379.229181 270.916352 L 380.648534 270.771574 L 382.077542 270.684707 L 383.516205 270.655752 L 384.945213 270.684707 L 386.374221 270.771574 L 387.803229 270.916352 L 389.222581 271.119041 L 390.622623 271.379641 L 392.022665 271.6885 L 393.403395 272.064923 L 394.77447 272.489604 L 396.126235 272.972197 L 397.449033 273.503049 L 398.762175 274.091813 L 400.036696 274.728835 L 401.291905 275.423769 L 402.518149 276.166962 L 403.715426 276.958414 L 404.874081 277.788473 L 406.003769 278.676444 L 407.094836 279.603022 L 408.147281 280.57786 L 409.161105 281.591305 L 410.136306 282.643357 L 411.06323 283.734017 L 411.941877 284.853632 L 412.781902 286.021507 L 413.57365 287.218337 L 414.307464 288.444122 L 415.002657 289.698864 L 415.639918 290.972909 L 416.228901 292.285561 L 416.759951 293.607865 L 417.242724 294.959125 L 417.667564 296.329689 L 418.044127 297.709904 L 418.353102 299.109423 L 418.613799 300.518594 L 418.816564 301.937417 L 418.961396 303.35624 L 419.048295 304.794366 L 419.077261 306.222841 M 157.877779 463.972775 L 157.848812 462.360915 L 157.752258 460.758707 L 157.607426 459.156499 L 157.395006 457.554291 L 157.124653 455.971387 L 156.796367 454.398134 L 156.410149 452.834533 L 155.965998 451.290236 L 155.463914 449.765243 L 154.903897 448.249902 L 154.295603 446.763516 L 153.619721 445.306086 L 152.895562 443.867959 L 152.123125 442.458788 L 151.292755 441.078573 L 150.414109 439.727313 L 149.477529 438.414661 L 148.502328 437.140616 L 147.478849 435.895526 L 146.407093 434.698696 L 145.296715 433.540473 L 144.13806 432.420858 L 142.940783 431.349502 L 141.704884 430.316753 L 140.420708 429.341916 L 139.117221 428.405686 L 137.765457 427.517715 L 136.394382 426.687656 L 134.984685 425.905855 L 133.555677 425.181966 L 132.088047 424.506336 L 130.601106 423.888617 L 129.094855 423.32881 M 136.577836 354.482121 L 138.557205 354.26978 L 140.536574 354.11535 L 142.515943 354.018832 L 144.504968 353.989876 L 146.493992 354.00918 L 148.473361 354.086395 L 150.462386 354.231173 L 152.4321 354.433862 L 154.401813 354.68481 L 156.361872 355.003321 L 158.32193 355.379744 L 160.253022 355.804425 L 162.184113 356.29667 L 164.095894 356.846826 L 165.988364 357.445241 L 167.861523 358.101567 L 169.715372 358.815804 L 171.549909 359.587953 L 173.35548 360.408361 L 175.14174 361.286679 L 176.889378 362.213258 L 178.627361 363.188095 L 180.317066 364.220844 L 181.98746 365.301852 L 183.619233 366.431119 L 185.222039 367.608645 L 186.786224 368.834431 L 188.311786 370.098824 L 189.808382 371.411476 L 191.256701 372.772388 L 192.666398 374.171907 L 194.027818 375.619686 L 195.350616 377.09642 L 196.634792 378.621413 L 197.861035 380.175362 L 199.048657 381.767918 L 200.188001 383.399081 L 201.279068 385.059201 L 202.321857 386.748276 L 203.306714 388.475958 L 204.243294 390.222944 L 205.131596 392.008537 L 205.961966 393.803782 M 246.881802 658.978873 L 246.84318 657.08711 L 246.756281 655.195346 L 246.611449 653.313234 L 246.399029 651.431122 L 246.128676 649.558662 L 245.810046 647.695854 L 245.423827 645.842697 L 244.979676 643.999193 L 244.477592 642.174992 L 243.917576 640.370095 L 243.309282 638.584502 L 242.6334 636.818212 L 241.90924 635.071226 L 241.127148 633.343544 L 240.287123 631.644817 L 239.398821 629.975046 L 238.462241 628.334231 L 237.467729 626.722371 L 236.434595 625.149118 L 235.343528 623.595169 L 234.194528 622.08948 L 233.016562 620.612746 L 231.780663 619.184271 L 230.506143 617.784752 L 229.183345 616.433492 L 227.821925 615.12084 L 226.421884 613.846795 L 224.973565 612.621009 L 223.496279 611.443483 M 440.377204 658.978873 L 440.406171 656.276354 L 440.49307 653.583486 L 440.637902 650.890618 L 440.831011 648.207402 L 441.091708 645.514534 L 441.410338 642.84097 L 441.777246 640.167406 L 442.202086 637.503494 L 442.694514 634.849233 L 443.23522 632.214277 L 443.833859 629.57932 L 444.480774 626.963667 L 445.185623 624.357666 L 445.95806 621.770969 L 446.769118 619.203575 L 447.647765 616.655485 L 448.574689 614.117047 L 449.549891 611.607564 L 450.583025 609.117385 L 451.674092 606.64651 L 452.813436 604.204591 L 454.001057 601.781975 L 455.246611 599.388315 L 456.540443 597.02361 L 457.882552 594.687861 L 459.272938 592.371415 L 460.711601 590.093577 L 462.198542 587.844695 L 463.73376 585.624768 M 205.971621 437.121312 L 205.942655 439.534276 L 205.855755 441.94724 L 205.710924 444.369856 L 205.508159 446.773168 L 205.247462 449.17648 L 204.928831 451.579792 L 204.552268 453.963801 L 204.117773 456.347809 L 203.625344 458.712514 L 203.074983 461.067567 L 202.476345 463.412968 L 201.819774 465.739065 L 201.10527 468.05551 L 200.332833 470.343 L 199.502463 472.620838 L 198.623817 474.869721 L 197.735514 477.15721 L 196.895489 479.464004 L 196.113397 481.790101 L 195.379582 484.12585 L 194.7037 486.490555 L 194.076095 488.864912 L 193.516079 491.24892 L 193.004339 493.652232 L 192.550533 496.065196 L 192.154659 498.487812 L 191.807062 500.910428 L 191.527054 503.352348 L 191.295323 505.794267 M 419.077261 336.520017 L 419.106228 335.091542 L 419.193127 333.672719 L 419.337959 332.253897 L 419.540723 330.835074 L 419.791765 329.435555 L 420.110395 328.045687 L 420.477303 326.665472 L 420.902143 325.30456 L 421.384916 323.953301 L 421.915966 322.630996 L 422.495294 321.337648 L 423.132554 320.053951 L 423.827747 318.808861 L 424.561562 317.583076 L 425.35331 316.395897 L 426.183679 315.237675 L 427.062326 314.118059 L 427.98925 313.0274 L 428.954796 311.975347 L 429.968619 310.971554 L 431.011409 309.996717 L 432.102476 309.07979 L 433.222509 308.201472 L 434.381164 307.36176 L 435.568786 306.57996 L 436.795029 305.836767 L 438.040583 305.151485 L 439.324759 304.514463 L 440.618591 303.925699 L 441.951044 303.394847 L 443.293153 302.912254 L 444.654573 302.487573 L 446.035303 302.120802 L 447.42569 301.802291 L 448.825731 301.551343 L 450.235428 301.348654 L 451.654781 301.203876 L 453.083789 301.117009 L 454.512797 301.088054 L 455.941805 301.117009 L 457.361157 301.203876 L 458.78051 301.348654 L 460.199862 301.551343 L 461.599904 301.802291 L 462.99029 302.120802 L 464.37102 302.487573 L 465.73244 302.912254 L 467.074549 303.394847 L 468.397347 303.925699 L 469.700834 304.514463 L 470.975355 305.151485 L 472.230564 305.836767 L 473.447152 306.57996 L 474.634774 307.36176 L 475.793429 308.201472 L 476.923117 309.07979 L 478.004529 309.996717 L 479.056974 310.971554 L 480.061142 311.975347 L 481.036343 313.0274 L 481.953612 314.118059 L 482.832258 315.237675 L 483.672283 316.395897 L 484.454376 317.583076 L 485.197846 318.808861 L 485.883384 320.053951 L 486.520644 321.337648 L 487.109627 322.630996 L 487.640677 323.953301 L 488.12345 325.30456 L 488.54829 326.665472 L 488.915198 328.045687 L 489.224172 329.435555 L 489.48487 330.835074 L 489.687634 332.253897 L 489.832466 333.672719 L 489.919366 335.091542 L 489.948332 336.520017 " stroke="#000000" stroke-width="10" stroke-opacity="1" stroke-miterlimit="4"/></g><g clip-path="url(#ca6b61dcb7)"><path fill="#ffffff" d="M 699.375 405.347656 L 699.375 426.976562 L 727.078125 448.515625 L 699.375 469.96875 L 699.375 491.597656 L 754.871094 448.425781 Z M 752.136719 405.347656 L 752.136719 426.976562 L 779.84375 448.515625 L 752.136719 469.96875 L 752.136719 491.597656 L 807.636719 448.425781 Z M 804.898438 405.347656 L 804.898438 426.976562 L 832.605469 448.515625 L 804.898438 469.96875 L 804.898438 491.597656 L 860.398438 448.425781 Z M 804.898438 405.347656 " fill-opacity="1" fill-rule="nonzero"/></g><g clip-path="url(#3ab85b1641)"><path fill="#ffffff" d="M 444.234375 277.335938 C 450 277.316406 455.757812 277.558594 461.5 278.0625 C 467.246094 278.566406 472.953125 279.328125 478.628906 280.355469 C 484.300781 281.378906 489.917969 282.660156 495.472656 284.199219 C 501.03125 285.738281 506.503906 287.523438 511.898438 289.5625 C 517.292969 291.597656 522.582031 293.878906 527.765625 296.398438 C 532.949219 298.917969 538.011719 301.667969 542.945312 304.648438 C 547.875 307.632812 552.664062 310.832031 557.304688 314.25 C 561.945312 317.667969 566.421875 321.292969 570.730469 325.121094 L 519.390625 325.121094 L 519.390625 338.773438 L 587.714844 338.773438 C 588.164062 338.773438 588.609375 338.726562 589.050781 338.640625 C 589.488281 338.554688 589.917969 338.421875 590.332031 338.253906 C 590.746094 338.082031 591.140625 337.871094 591.511719 337.621094 C 591.882812 337.371094 592.230469 337.089844 592.546875 336.773438 C 592.863281 336.457031 593.148438 336.109375 593.398438 335.738281 C 593.644531 335.367188 593.855469 334.972656 594.027344 334.558594 C 594.199219 334.144531 594.328125 333.71875 594.417969 333.277344 C 594.503906 332.835938 594.546875 332.394531 594.546875 331.945312 L 594.546875 263.683594 L 580.882812 263.683594 L 580.882812 315.890625 C 576.25 311.714844 571.433594 307.757812 566.4375 304.027344 C 561.4375 300.292969 556.277344 296.796875 550.957031 293.539062 C 545.636719 290.285156 540.175781 287.277344 534.574219 284.523438 C 528.976562 281.769531 523.261719 279.28125 517.433594 277.054688 C 511.605469 274.824219 505.6875 272.871094 499.675781 271.191406 C 493.667969 269.507812 487.59375 268.109375 481.453125 266.988281 C 475.316406 265.867188 469.136719 265.03125 462.921875 264.476562 C 456.703125 263.925781 450.476562 263.660156 444.234375 263.683594 C 439.542969 263.683594 434.855469 263.84375 430.171875 264.164062 C 425.488281 264.488281 420.824219 264.96875 416.175781 265.609375 C 411.527344 266.25 406.902344 267.050781 402.308594 268.011719 C 397.714844 268.96875 393.160156 270.085938 388.640625 271.355469 C 384.125 272.625 379.65625 274.050781 375.238281 275.628906 C 370.816406 277.207031 366.457031 278.933594 362.15625 280.8125 C 357.855469 282.691406 353.625 284.710938 349.460938 286.878906 C 345.300781 289.046875 341.21875 291.355469 337.214844 293.804688 C 333.210938 296.25 329.296875 298.832031 325.472656 301.550781 C 321.648438 304.265625 317.917969 307.109375 314.289062 310.082031 C 310.660156 313.054688 307.136719 316.148438 303.71875 319.363281 C 300.300781 322.574219 297 325.902344 293.808594 329.34375 C 290.621094 332.785156 287.554688 336.332031 284.609375 339.980469 C 281.664062 343.632812 278.847656 347.382812 276.164062 351.226562 C 273.476562 355.070312 270.921875 359.003906 268.507812 363.023438 C 266.089844 367.042969 263.816406 371.140625 261.679688 375.316406 C 259.542969 379.492188 257.554688 383.734375 255.710938 388.046875 C 253.871094 392.359375 252.175781 396.730469 250.632812 401.160156 C 249.089844 405.585938 247.703125 410.0625 246.46875 414.585938 C 245.234375 419.109375 244.15625 423.671875 243.234375 428.269531 C 242.3125 432.867188 241.550781 437.492188 240.945312 442.140625 C 240.34375 446.792969 239.898438 451.457031 239.617188 456.136719 C 239.335938 460.816406 239.214844 465.503906 239.253906 470.191406 C 239.292969 474.878906 239.492188 479.5625 239.855469 484.238281 C 240.214844 488.914062 240.738281 493.570312 241.417969 498.207031 C 242.101562 502.847656 242.941406 507.457031 243.9375 512.039062 C 244.9375 516.621094 246.09375 521.164062 247.402344 525.667969 C 248.714844 530.167969 250.179688 534.621094 251.796875 539.023438 C 253.410156 543.425781 255.179688 547.765625 257.09375 552.046875 C 259.007812 556.328125 261.070312 560.539062 263.273438 564.675781 C 265.480469 568.816406 267.824219 572.875 270.308594 576.851562 C 272.792969 580.832031 275.410156 584.71875 278.160156 588.519531 L 289.222656 580.511719 C 286.65625 576.964844 284.210938 573.335938 281.894531 569.625 C 279.574219 565.910156 277.386719 562.121094 275.328125 558.257812 C 273.269531 554.394531 271.347656 550.464844 269.5625 546.46875 C 267.773438 542.476562 266.125 538.421875 264.617188 534.316406 C 263.105469 530.207031 261.738281 526.050781 260.515625 521.847656 C 259.292969 517.644531 258.214844 513.40625 257.285156 509.128906 C 256.351562 504.855469 255.566406 500.550781 254.929688 496.222656 C 254.296875 491.890625 253.808594 487.542969 253.472656 483.179688 C 253.132812 478.816406 252.949219 474.449219 252.910156 470.070312 C 252.875 465.695312 252.988281 461.324219 253.25 456.953125 C 253.515625 452.585938 253.929688 448.230469 254.492188 443.890625 C 255.054688 439.550781 255.765625 435.234375 256.628906 430.945312 C 257.488281 426.652344 258.492188 422.394531 259.644531 418.171875 C 260.800781 413.953125 262.09375 409.773438 263.535156 405.640625 C 264.976562 401.507812 266.554688 397.429688 268.277344 393.402344 C 269.996094 389.378906 271.851562 385.417969 273.84375 381.519531 C 275.835938 377.625 277.960938 373.800781 280.214844 370.046875 C 282.46875 366.296875 284.851562 362.628906 287.359375 359.039062 C 289.867188 355.453125 292.492188 351.953125 295.242188 348.546875 C 297.988281 345.140625 300.851562 341.832031 303.828125 338.621094 C 306.800781 335.410156 309.882812 332.304688 313.074219 329.304688 C 316.261719 326.304688 319.550781 323.417969 322.9375 320.644531 C 326.328125 317.871094 329.804688 315.214844 333.375 312.679688 C 336.949219 310.144531 340.601562 307.734375 344.335938 305.449219 C 348.074219 303.167969 351.882812 301.011719 355.769531 298.988281 C 359.652344 296.964844 363.601562 295.078125 367.617188 293.328125 C 371.632812 291.574219 375.699219 289.960938 379.828125 288.488281 C 383.953125 287.015625 388.121094 285.6875 392.339844 284.5 C 396.554688 283.3125 400.808594 282.273438 405.097656 281.375 C 409.386719 280.480469 413.699219 279.734375 418.039062 279.136719 C 422.378906 278.535156 426.734375 278.085938 431.105469 277.785156 C 435.476562 277.488281 439.855469 277.335938 444.234375 277.335938 Z M 444.234375 277.335938 " fill-opacity="1" fill-rule="nonzero"/></g><g clip-path="url(#64a2323f6d)"><path fill="#ffffff" d="M 610.3125 348.417969 L 599.242188 356.429688 C 601.808594 359.976562 604.253906 363.605469 606.570312 367.320312 C 608.890625 371.03125 611.078125 374.820312 613.132812 378.683594 C 615.191406 382.546875 617.113281 386.476562 618.902344 390.472656 C 620.691406 394.46875 622.335938 398.519531 623.847656 402.628906 C 625.355469 406.734375 626.722656 410.890625 627.945312 415.09375 C 629.167969 419.296875 630.246094 423.535156 631.175781 427.808594 C 632.109375 432.085938 632.894531 436.390625 633.527344 440.71875 C 634.164062 445.050781 634.652344 449.394531 634.988281 453.757812 C 635.324219 458.121094 635.511719 462.492188 635.550781 466.867188 C 635.585938 471.246094 635.472656 475.617188 635.207031 479.984375 C 634.945312 484.351562 634.53125 488.707031 633.96875 493.046875 C 633.402344 497.386719 632.691406 501.703125 631.832031 505.992188 C 630.972656 510.285156 629.964844 514.542969 628.8125 518.761719 C 627.660156 522.984375 626.363281 527.164062 624.925781 531.296875 C 623.484375 535.429688 621.90625 539.507812 620.183594 543.53125 C 618.464844 547.558594 616.609375 551.519531 614.617188 555.414062 C 612.625 559.3125 610.5 563.136719 608.246094 566.886719 C 605.988281 570.636719 603.609375 574.308594 601.101562 577.894531 C 598.59375 581.484375 595.964844 584.980469 593.21875 588.386719 C 590.46875 591.796875 587.609375 595.105469 584.632812 598.316406 C 581.65625 601.527344 578.574219 604.632812 575.386719 607.632812 C 572.195312 610.632812 568.90625 613.519531 565.519531 616.292969 C 562.132812 619.066406 558.652344 621.722656 555.082031 624.257812 C 551.511719 626.792969 547.859375 629.199219 544.125 631.484375 C 540.386719 633.769531 536.578125 635.925781 532.691406 637.945312 C 528.808594 639.96875 524.859375 641.859375 520.84375 643.609375 C 516.832031 645.363281 512.761719 646.972656 508.636719 648.449219 C 504.511719 649.921875 500.339844 651.25 496.125 652.4375 C 491.910156 653.625 487.65625 654.664062 483.367188 655.558594 C 479.082031 656.453125 474.765625 657.203125 470.425781 657.800781 C 466.085938 658.398438 461.734375 658.847656 457.363281 659.148438 C 452.992188 659.449219 448.617188 659.601562 444.234375 659.601562 C 438.46875 659.621094 432.714844 659.378906 426.972656 658.875 C 421.226562 658.371094 415.519531 657.605469 409.847656 656.582031 C 404.171875 655.554688 398.558594 654.273438 393 652.738281 C 387.445312 651.199219 381.96875 649.414062 376.578125 647.375 C 371.183594 645.335938 365.894531 643.058594 360.710938 640.539062 C 355.523438 638.019531 350.464844 635.269531 345.53125 632.285156 C 340.601562 629.304688 335.8125 626.105469 331.171875 622.683594 C 326.53125 619.265625 322.058594 615.644531 317.746094 611.816406 L 369.078125 611.816406 L 369.078125 598.164062 L 300.753906 598.164062 C 300.308594 598.164062 299.863281 598.207031 299.421875 598.296875 C 298.984375 598.382812 298.554688 598.511719 298.140625 598.683594 C 297.726562 598.855469 297.332031 599.066406 296.960938 599.316406 C 296.585938 599.5625 296.242188 599.847656 295.925781 600.164062 C 295.605469 600.480469 295.324219 600.824219 295.074219 601.199219 C 294.824219 601.570312 294.613281 601.964844 294.445312 602.378906 C 294.273438 602.792969 294.140625 603.21875 294.054688 603.660156 C 293.96875 604.097656 293.921875 604.542969 293.921875 604.992188 L 293.921875 673.25 L 307.589844 673.25 L 307.589844 621.039062 C 312.222656 625.214844 317.035156 629.171875 322.035156 632.90625 C 327.035156 636.636719 332.195312 640.132812 337.515625 643.390625 C 342.835938 646.648438 348.296875 649.652344 353.894531 652.40625 C 359.496094 655.160156 365.207031 657.652344 371.039062 659.878906 C 376.867188 662.105469 382.785156 664.0625 388.796875 665.742188 C 394.804688 667.425781 400.878906 668.824219 407.019531 669.949219 C 413.15625 671.070312 419.335938 671.90625 425.550781 672.457031 C 431.765625 673.007812 437.996094 673.273438 444.234375 673.25 C 448.929688 673.253906 453.617188 673.09375 458.300781 672.769531 C 462.980469 672.449219 467.648438 671.96875 472.296875 671.328125 C 476.945312 670.683594 481.566406 669.886719 486.160156 668.925781 C 490.753906 667.96875 495.3125 666.851562 499.828125 665.582031 C 504.347656 664.308594 508.816406 662.886719 513.234375 661.308594 C 517.652344 659.730469 522.015625 658 526.316406 656.125 C 530.617188 654.246094 534.847656 652.222656 539.007812 650.058594 C 543.171875 647.890625 547.253906 645.582031 551.257812 643.132812 C 555.257812 640.6875 559.171875 638.105469 563 635.386719 C 566.824219 632.671875 570.550781 629.828125 574.183594 626.855469 C 577.8125 623.882812 581.335938 620.789062 584.753906 617.574219 C 588.171875 614.359375 591.472656 611.03125 594.660156 607.59375 C 597.851562 604.152344 600.917969 600.605469 603.863281 596.953125 C 606.804688 593.304688 609.621094 589.554688 612.308594 585.710938 C 614.996094 581.867188 617.546875 577.933594 619.964844 573.914062 C 622.382812 569.894531 624.65625 565.796875 626.792969 561.621094 C 628.925781 557.445312 630.914062 553.203125 632.757812 548.890625 C 634.601562 544.578125 636.296875 540.207031 637.835938 535.777344 C 639.378906 531.347656 640.769531 526.875 642.003906 522.347656 C 643.238281 517.824219 644.316406 513.265625 645.238281 508.667969 C 646.160156 504.070312 646.921875 499.445312 647.523438 494.796875 C 648.128906 490.144531 648.570312 485.480469 648.855469 480.800781 C 649.136719 476.117188 649.257812 471.433594 649.21875 466.746094 C 649.179688 462.054688 648.980469 457.375 648.617188 452.699219 C 648.257812 448.023438 647.734375 443.367188 647.054688 438.726562 C 646.371094 434.089844 645.53125 429.476562 644.53125 424.894531 C 643.535156 420.316406 642.378906 415.773438 641.070312 411.269531 C 639.757812 406.769531 638.292969 402.316406 636.675781 397.914062 C 635.058594 393.511719 633.292969 389.171875 631.378906 384.890625 C 629.460938 380.609375 627.402344 376.398438 625.195312 372.257812 C 622.992188 368.121094 620.648438 364.0625 618.164062 360.082031 C 615.679688 356.105469 613.0625 352.214844 610.3125 348.417969 Z M 610.3125 348.417969 " fill-opacity="1" fill-rule="nonzero"/></g><g clip-path="url(#8c9548f440)"><path fill="#ffffff" d="M 393.960938 363.933594 L 393.960938 389.371094 L 368.492188 389.371094 Z M 397.828125 397.097656 C 399.960938 397.097656 401.695312 395.363281 401.695312 393.234375 L 401.695312 358.472656 L 517.710938 358.472656 L 517.710938 574.773438 L 363.027344 574.773438 L 363.027344 397.097656 Z M 363.027344 582.496094 L 517.710938 582.496094 C 521.972656 582.496094 525.445312 579.027344 525.445312 574.773438 L 525.445312 358.472656 C 525.445312 354.21875 521.972656 350.746094 517.710938 350.746094 L 397.828125 350.746094 L 397.828125 350.777344 C 396.816406 350.777344 395.835938 351.140625 395.097656 351.878906 L 356.425781 390.503906 C 355.683594 391.242188 355.335938 392.222656 355.320312 393.234375 L 355.292969 393.234375 L 355.292969 574.773438 C 355.292969 579.027344 358.765625 582.496094 363.027344 582.496094 " fill-opacity="1" fill-rule="nonzero"/></g><path fill="#ffffff" d="M 382.363281 416.410156 L 451.96875 416.410156 C 454.101562 416.410156 455.835938 414.675781 455.835938 412.546875 C 455.835938 410.417969 454.101562 408.683594 451.96875 408.683594 L 382.363281 408.683594 C 380.230469 408.683594 378.496094 410.417969 378.496094 412.546875 C 378.496094 414.675781 380.230469 416.410156 382.363281 416.410156 " fill-opacity="1" fill-rule="nonzero"/><path fill="#ffffff" d="M 382.363281 439.585938 L 498.375 439.585938 C 500.507812 439.585938 502.242188 437.847656 502.242188 435.722656 C 502.242188 433.59375 500.507812 431.859375 498.375 431.859375 L 382.363281 431.859375 C 380.230469 431.859375 378.496094 433.59375 378.496094 435.722656 C 378.496094 437.847656 380.230469 439.585938 382.363281 439.585938 " fill-opacity="1" fill-rule="nonzero"/><path fill="#ffffff" d="M 382.363281 462.757812 L 498.375 462.757812 C 500.507812 462.757812 502.242188 461.023438 502.242188 458.898438 C 502.242188 456.769531 500.507812 455.035156 498.375 455.035156 L 382.363281 455.035156 C 380.230469 455.035156 378.496094 456.769531 378.496094 458.898438 C 378.496094 461.023438 380.230469 462.757812 382.363281 462.757812 " fill-opacity="1" fill-rule="nonzero"/><path fill="#ffffff" d="M 382.363281 485.933594 L 498.375 485.933594 C 500.507812 485.933594 502.242188 484.199219 502.242188 482.070312 C 502.242188 479.945312 500.507812 478.210938 498.375 478.210938 L 382.363281 478.210938 C 380.230469 478.210938 378.496094 479.945312 378.496094 482.070312 C 378.496094 484.199219 380.230469 485.933594 382.363281 485.933594 " fill-opacity="1" fill-rule="nonzero"/><path fill="#ffffff" d="M 382.363281 509.109375 L 498.375 509.109375 C 500.507812 509.109375 502.242188 507.375 502.242188 505.246094 C 502.242188 503.121094 500.507812 501.382812 498.375 501.382812 L 382.363281 501.382812 C 380.230469 501.382812 378.496094 503.121094 378.496094 505.246094 C 378.496094 507.375 380.230469 509.109375 382.363281 509.109375 " fill-opacity="1" fill-rule="nonzero"/><path fill="#ffffff" d="M 382.363281 532.285156 L 498.375 532.285156 C 500.507812 532.285156 502.242188 530.550781 502.242188 528.421875 C 502.242188 526.292969 500.507812 524.558594 498.375 524.558594 L 382.363281 524.558594 C 380.230469 524.558594 378.496094 526.292969 378.496094 528.421875 C 378.496094 530.550781 380.230469 532.285156 382.363281 532.285156 " fill-opacity="1" fill-rule="nonzero"/><path fill="#ffffff" d="M 490.640625 547.734375 L 479.039062 547.734375 C 476.910156 547.734375 475.171875 549.46875 475.171875 551.597656 C 475.171875 553.722656 476.910156 555.460938 479.039062 555.460938 L 490.640625 555.460938 C 492.773438 555.460938 494.507812 553.722656 494.507812 551.597656 C 494.507812 549.46875 492.773438 547.734375 490.640625 547.734375 " fill-opacity="1" fill-rule="nonzero"/><path fill="#ffffff" d="M 463.570312 547.734375 L 405.5625 547.734375 C 403.433594 547.734375 401.695312 549.46875 401.695312 551.597656 C 401.695312 553.722656 403.433594 555.460938 405.5625 555.460938 L 463.570312 555.460938 C 465.703125 555.460938 467.4375 553.722656 467.4375 551.597656 C 467.4375 549.46875 465.703125 547.734375 463.570312 547.734375 " fill-opacity="1" fill-rule="nonzero"/><path fill="#ffffff" d="M 390.097656 547.734375 L 382.363281 547.734375 C 380.230469 547.734375 378.496094 549.46875 378.496094 551.597656 C 378.496094 553.722656 380.230469 555.460938 382.363281 555.460938 L 390.097656 555.460938 C 392.226562 555.460938 393.960938 553.722656 393.960938 551.597656 C 393.960938 549.46875 392.226562 547.734375 390.097656 547.734375 " fill-opacity="1" fill-rule="nonzero"/></svg>